<?xml version="1.0" encoding="UTF-8"?>
<svg width="256px" height="256px" viewBox="0 0 256 256" version="1.1" xmlns="http://www.w3.org/2000/svg" xmlns:xlink="http://www.w3.org/1999/xlink">
    <!-- Generator: Sketch 52.2 (67145) - http://www.bohemiancoding.com/sketch -->
    <title>应用盒子</title>
    <desc>Created with Sketch.</desc>
    <defs>
        <linearGradient x1="50%" y1="22.0451161%" x2="50%" y2="91.4751104%" id="linearGradient-1">
            <stop stop-color="#D7DDE3" offset="0%"></stop>
            <stop stop-color="#AEB8C2" offset="100%"></stop>
        </linearGradient>
    </defs>
    <g id="页面" stroke="none" stroke-width="1" fill="none" fill-rule="evenodd">
        <g id="应用盒子" transform="translate(20.000000, 13.000000)">
            <path d="M37.1101322,27.7743339 C44.5860832,34.6020796 51.8812374,38.031193 58.9955947,38.061674 C55.3248422,34.6649606 52.7786195,31.2358473 51.3569265,27.7743339 C49.9352335,24.3128205 48.8338791,18.8608766 48.0528634,11.4185022 C40.9385061,16.9992976 37.290929,22.4512415 37.1101322,27.7743339 Z" id="路径-17" fill="#C0CEE3"></path>
            <path d="M28.5462555,53.4659638 C31.85828,55.9098493 34.8539558,57.7615058 37.5332828,59.020933 C40.2126099,60.2803603 44.5120883,61.8578173 50.4317181,63.753304 C43.9327625,53.0148737 40.2851854,44.1338165 39.4889868,37.1101322 C33.2992381,40.9002401 29.651661,46.352184 28.5462555,53.4659638 Z" id="路径-17复制" fill="#C0CEE3"></path>
            <g id="分组" transform="translate(0.000000, 51.383260)">
                <polygon id="路径-2" fill="url(#linearGradient-1)" fill-rule="nonzero" points="0 122.919545 0 51.2345272 97.0436662 0.104956327 216 36.6926658 215.290015 109.962516 113.268293 119.376608"></polygon>
                <polygon id="路径-20" fill="#ADB8C4" points="0 123.522282 96.2943755 71.3672708 215.290015 108.272028 134.208984 178.533545"></polygon>
                <path d="M28.9756098,65.6023731 L28.9756098,87.813736 C28.9756098,92.0471162 31.5923933,95.8550868 35.585626,97.4327003 L89.2501951,118.634057 C90.1864963,119.003963 91.1861417,119.194052 92.195122,119.194052 C96.5595185,119.194052 100.097561,115.713416 100.097561,111.419834 L100.097561,92.8312706 C100.097561,91.1744163 101.440707,89.8312706 103.097561,89.8312706 C103.44419,89.8312706 103.788197,89.891343 104.114311,90.0088213 L134.38423,100.913157 L134.27651,178.533545 L0,123.522282 L0,50.8043133 L26.5209709,61.9129478 C28.0078856,62.5357604 28.9756098,63.9902903 28.9756098,65.6023731 Z" id="合并形状" fill="#CCD6E5" fill-rule="nonzero"></path>
                <polygon id="路径-19" fill="#D8E0EB" fill-rule="nonzero" points="134.27651 100.935933 134.27651 178.637302 215.889386 109.915699 215.889386 36.8957521"></polygon>
            </g>
            <g id="编组-5" transform="translate(67.559471, 0.000000)">
                <path d="M1.95399252e-14,43.9029144 C8.04443699,51.9166377 12.7062114,63.2189929 13.9853232,77.80998 C15.2644351,92.4009672 12.9335479,107.687331 6.99266162,123.669071 L51.7859711,103.491071 C60.0644592,86.3703437 64.2037033,72.32122 64.2037033,61.3437001 C71.3856817,61.6709238 81.8354844,61.6709238 95.5531113,61.3437001 C100.031598,49.7165096 100.031598,36.9512016 95.5531113,23.0477761 C91.0746245,9.14435057 87.1869988,1.46175853 83.8902344,0 L1.95399252e-14,43.9029144 Z" id="路径-15" fill="#C0CEE3"></path>
                <path d="M63.5199925,59.9500136 C62.5010583,75.2716077 58.5897179,89.7852935 51.7859711,103.491071 C65.7531918,91.9539324 75.9945852,82.9717009 82.5101514,76.5443766 C89.0257176,70.1170523 93.4811427,64.840719 95.8764269,60.7153768 C84.5876616,61.4614827 73.8021835,61.2063616 63.5199925,59.9500136 Z" id="路径-16" fill="#EDF0FA"></path>
            </g>
        </g>
    </g>
</svg>