<svg width="10" height="12" xmlns="http://www.w3.org/2000/svg"><g fill="#FFF" fill-rule="nonzero"><path d="M8.902 5.886v5.42H.686v-5.42h8.216zm0-.685H.686A.685.685 0 0 0 0 5.886v5.42c0 .377.307.684.685.684h8.216a.685.685 0 0 0 .685-.685v-5.42a.685.685 0 0 0-.685-.684z"/><path d="M2.154 5.489a.342.342 0 0 1-.342-.343V3.071A3.026 3.026 0 0 1 4.794.007c1.668.027 3 1.397 2.979 3.064a.342.342 0 0 1-.685 0A2.342 2.342 0 0 0 4.794.692 2.342 2.342 0 0 0 2.5 3.072v2.074a.342.342 0 0 1-.346.343zm2.64 4.313a.342.342 0 0 1-.342-.342V8.166a.342.342 0 0 1 .684 0V9.46a.342.342 0 0 1-.342.342z"/></g></svg>