<svg width="12" height="12" xmlns="http://www.w3.org/2000/svg"><g fill="#FFF" fill-rule="nonzero"><path d="M6 12c-3.308 0-6-2.692-6-6s2.692-6 6-6a5.972 5.972 0 0 1 3.354 1.024.382.382 0 0 1-.138.69.378.378 0 0 1-.285-.058A5.246 5.246 0 0 0 .758 6 5.246 5.246 0 0 0 6 11.238c2.89 0 5.242-2.35 5.242-5.238A.379.379 0 1 1 12 6c0 3.308-2.692 6-6 6z"/><path d="M11.024 3.888a.378.378 0 0 1-.34-.212 5.288 5.288 0 0 0-.295-.519.384.384 0 0 1 .11-.529.376.376 0 0 1 .524.111c.124.192.237.39.338.595a.384.384 0 0 1-.337.554zM5.99 6.014a.376.376 0 0 1-.375-.376v-3.01a.376.376 0 1 1 .75 0v3.01a.376.376 0 0 1-.375.376z"/><path d="M8.605 5.986H5.989a.372.372 0 0 1-.374-.37c0-.205.168-.371.374-.371h2.616c.206 0 .374.166.374.37 0 .205-.168.37-.374.37z"/></g></svg>