<?xml version="1.0" standalone="no"?><!DOCTYPE svg PUBLIC "-//W3C//DTD SVG 1.1//EN" "http://www.w3.org/Graphics/SVG/1.1/DTD/svg11.dtd"><svg t="1551421181638" class="icon" style="" viewBox="0 0 1024 1024" version="1.1" xmlns="http://www.w3.org/2000/svg" p-id="4179" xmlns:xlink="http://www.w3.org/1999/xlink" width="200" height="200"><defs><style type="text/css"></style></defs><path fill="#fff" d="M256.00224 73.148142a36.571844 36.571844 0 0 0 36.556484-37.698234A37.585595 37.585595 0 0 0 254.466253 0.004454H73.153262A73.143687 73.143687 0 0 0 0.004454 73.148142V254.466253a37.585595 37.585595 0 0 0 35.445454 38.087351A36.571844 36.571844 0 0 0 73.148142 256.00224V89.388641a16.2405 16.2405 0 0 1 16.240499-16.240499zM950.85191 256.00224a36.571844 36.571844 0 0 0 37.698233 36.556484A37.585595 37.585595 0 0 0 1023.995597 254.466253V73.153262A73.143687 73.143687 0 0 0 950.85191 0.004454H769.533798a37.585595 37.585595 0 0 0-38.087351 35.445454 36.571844 36.571844 0 0 0 36.556484 37.698234h166.613599a16.2405 16.2405 0 0 1 16.2405 16.240499zM767.997811 950.85191a36.571844 36.571844 0 0 0-36.556484 37.693113A37.585595 37.585595 0 0 0 769.533798 1023.995597h181.318112A73.143687 73.143687 0 0 0 1023.995597 950.85191v-181.323232a37.585595 37.585595 0 0 0-35.445454-38.092471 36.571844 36.571844 0 0 0-37.698233 36.556484v166.613599a16.2405 16.2405 0 0 1-16.2405 16.24562zM73.148142 767.997811a36.571844 36.571844 0 0 0-37.698234-36.556484A37.585595 37.585595 0 0 0 0.004454 769.528678v181.323232a73.143687 73.143687 0 0 0 73.143688 73.138567H254.466253a37.585595 37.585595 0 0 0 38.087351-35.445454 36.571844 36.571844 0 0 0-36.556484-37.693113H89.388641a16.2405 16.2405 0 0 1-16.240499-16.24562z" p-id="4180"></path><path fill="#fff" d="M190.958323 455.096838m56.903187 0l528.277031 0q56.903188 0 56.903188 56.903188l0 0q0 56.903188-56.903188 56.903187l-528.277031 0q-56.903188 0-56.903187-56.903187l0 0q0-56.903188 56.903187-56.903188Z" p-id="4181"></path></svg>