<svg width="12" height="12" xmlns="http://www.w3.org/2000/svg"><g fill="#FFF" fill-rule="evenodd"><path d="M11.874 8.697a.427.427 0 0 0-.73.303v1.537L7.59 6.983a.431.431 0 0 0-.607 0 .428.428 0 0 0 0 .605l3.555 3.555H9A.427.427 0 1 0 9 12h2.143a.857.857 0 0 0 .857-.857V9c0-.11-.042-.22-.126-.303M1.463.857H3A.427.427 0 1 0 3 0H.857A.857.857 0 0 0 0 .857V3a.427.427 0 1 0 .857 0V1.463L4.41 5.016a.427.427 0 0 0 .605 0 .428.428 0 0 0 0-.606L1.463.857zM.126 8.697A.427.427 0 0 1 .856 9v1.537L4.41 6.983a.431.431 0 0 1 .607 0 .428.428 0 0 1 0 .605l-3.555 3.555H3A.427.427 0 1 1 3 12H.857A.857.857 0 0 1 0 11.143V9c0-.11.042-.22.126-.303M10.536.857H9A.427.427 0 1 1 9 0h2.143c.474 0 .857.384.857.857V3a.427.427 0 1 1-.857 0V1.463L7.588 5.016a.427.427 0 0 1-.605 0 .428.428 0 0 1 0-.606L10.536.857z"/></g></svg>