<svg width="12" height="12" xmlns="http://www.w3.org/2000/svg"><path d="M8.449 11.52c0 .265-.23.48-.516.48H4.067c-.285 0-.516-.215-.516-.48 0-.266.23-.48.516-.48h1.417V6.632c-.426-.182-.723-.58-.723-1.046 0-.638.555-1.153 1.24-1.153.683 0 1.238.515 1.238 1.153 0 .465-.297.864-.723 1.046v4.408h1.417c.285 0 .516.214.516.48zM6 0C2.692 0 0 2.506 0 5.587c0 1.492.624 2.894 1.758 3.95a.543.543 0 0 0 .73 0 .457.457 0 0 0 0-.68c-.94-.874-1.456-2.035-1.456-3.27C1.032 3.036 3.26.96 6 .96c2.74 0 4.968 2.074 4.968 4.626 0 1.235-.516 2.397-1.454 3.27a.457.457 0 0 0 0 .68c.1.094.233.14.365.14a.533.533 0 0 0 .364-.14C11.376 8.482 12 7.079 12 5.587 12 2.506 9.308 0 6 0zm0 2.307c-1.943 0-3.523 1.47-3.523 3.28 0 .875.367 1.7 1.032 2.319a.543.543 0 0 0 .73 0 .456.456 0 0 0 0-.68 2.227 2.227 0 0 1-.73-1.64c0-1.279 1.117-2.32 2.491-2.32s2.491 1.041 2.491 2.32c0 .62-.26 1.202-.73 1.64a.456.456 0 0 0 0 .68c.1.094.233.14.365.14a.534.534 0 0 0 .365-.14c.665-.619 1.032-1.444 1.032-2.32 0-1.81-1.58-3.28-3.523-3.28z" fill="#FFF" fill-rule="nonzero"/></svg>