<svg xmlns="http://www.w3.org/2000/svg" viewBox="0 0 437.55 103.42"><defs><style>.cls-1{fill:#fff;}</style></defs><title>1、Logo图标+lambdacal</title><g id="图层_2" data-name="图层 2"><g id="图层_1-2" data-name="图层 1"><path class="cls-1" d="M144.14,91.94l-1.33-4.35c4.11-2.62,6.89-5.69,6.49-10.71V52.28H142.8V45.87h15.36V74.78Q158.46,85,169.3,85h41.87v5.89H166.62c-6.43,0-9.36-2-12-5.79C152.25,88.73,150,90.74,144.14,91.94Zm5.69-51.26a45.18,45.18,0,0,0-5.12-15.06h7.93c3.1,4.08,4.49,9.44,5.42,15.06Zm12.55,10.9V46.16h48.18v5.42H196.64V70q-.3,3.92,3.31,3.61l1.57.14c2.61.2,2.33-1,2.68-3.46V67l5.12,1.47v2.17c.2,5.62-.57,8.92-6,8.72H197c-6,.2-8.93-3.4-8.73-9.62V51.58h-7c-.14,9.59-3.9,22.67-16.55,28.09l-1.47-4.95C169,69.63,173.18,63,173,51.58ZM165.33,33V27.53h41V33Z"/><path class="cls-1" d="M237.64,39.69a16,16,0,0,0-.32-2.73,21,21,0,0,0-1.4-3.91h-3.88c-2.4,3.61-6.4,5.89-12.22,7.57l-1.25-4.36A18.64,18.64,0,0,0,228,24.55h8.07A8.71,8.71,0,0,1,235,27.64H252.6v5.27h-9a12.92,12.92,0,0,1,1.61,5Zm32.69,0A16,16,0,0,0,270,37a21,21,0,0,0-1.4-3.91H263.9c-2.4,3.61-5.25,5.51-11.07,7.18l-1.25-4.36c5-2.41,7.45-7.4,8.27-11.33h8.07a8.71,8.71,0,0,1-1.11,3.08h19.41v5.27h-9.88a12.92,12.92,0,0,1,1.61,5Zm-44.43,31V41.06h53.43l.13,29.66h-7.61V76h15.28v6H271.86V92.54h-8.95V82H243.58C240.89,89,234,92.74,226.88,92.74l-1-4.52c5.8-2.21,7.09-3.73,8.18-6.26H218.77V76h15.84V70.72Zm8.87-24.6v3.73h35.74V46.11Zm0,8.1v3.33h35.74V54.21Zm0,11.23h35.74V62H234.78Zm9.81,7.22v2.56h18.33V70.72H244.59Z"/><path class="cls-1" d="M312.48,49.72c3,4.28,5.74,6,14.17,8.15l1.41-4c-6.56-2.66-8.09-4-10.5-8.48H330V40H316.86V33.1h11.37V27.69H308.12a18.22,18.22,0,0,0,1.28-3.91h-7.87c-.6,4.67-2.34,6.92-7,9.8l1,3.84a16.19,16.19,0,0,0,9-4.32h3.9V40H294.21v5.35h12.44c-3,4.32-3.84,6.15-11.27,8.67l1.5,3.87C305.11,56.62,309.47,54,312.48,49.72Z"/><path class="cls-1" d="M332.28,27.86v27.4h27.1V27.86Zm19.09,22.26h-11.1V33.06h11.1Z"/><path class="cls-1" d="M302.1,90.73H354V60.31H302.1Zm8.64-5.66V78.59h34.78v6.48Zm34.78-18.93V73H310.74V66.14Z"/><path class="cls-1" d="M397.92,47a10.73,10.73,0,0,0-.71-2.67C392,45.43,383,45.78,370,45.78V39.23c5-4.71,9.08-8.1,12.18-14.73h9.19c-3.88,7.28-6.76,10.67-11.6,14.73a110.41,110.41,0,0,0,15.62-.74c-.78-2.57-.82-2.08-2.37-4.86l6.26-1.69c3.49,5.78,5.28,9.56,6.45,15.34ZM372.74,91.94V49.79h29.81V83.21q.3,8.73-9.34,8.43H387.8V86.52h3.61q4.21.3,3.91-3.31V78.09H380V91.94ZM380,55.5v6.33h15.36V55.5Zm0,11.41v6.66h15.36V66.91ZM416.76,91q-8.74.3-8.43-8.43V57h8.06V69.6c7-1.6,9.74-3.82,12.6-7.35l6.51,1.85c-3.23,5-7.87,9.8-19.11,11.41V82c-.2,2.61.47,3.44,3.68,3.24h7.83c2.81.2,2.67-2.23,2.47-4.64V78.2l7.17,1.7v3.31q.3,8.13-8.73,7.83Zm0-36q-8.74.28-8.43-8V24.49h8.06V34.64c7-1.52,9.74-3.63,12.6-7l6.51,1.76c-3.23,4.71-7.87,9.32-19.11,10.84v6.17c-.2,2.48.47,3.27,3.68,3.08h7.83c2.81.19,2.67-2.12,2.47-4.41v-3L437.54,44v3.56q.3,7.73-8.73,7.44Z"/><rect class="cls-1" x="12.76" y="76.07" width="10.34" height="27.35"/><rect class="cls-1" y="84.13" width="10.34" height="19.29"/><rect class="cls-1" x="25.51" y="62.64" width="10.34" height="40.78"/><path class="cls-1" d="M53.08,0,38,26.52l9.21,16.23a78.57,78.57,0,0,0,4.05-11.33l.58-.31c1.41-.71,2-.51,2.63.89.09.19.15.38.23.57a78.54,78.54,0,0,1-5.36,13.94l32.28,56.91h30.18Zm6.08,35.94a.58.58,0,0,1-.24.38,4.7,4.7,0,0,1-.44-.75c-.41-1.16-.77-2.33-1.19-3.49s-.89-2.5-1.44-3.72c-.64-1.4-1.22-1.6-2.63-.89s-2.89,1.59-4.31,2.42-2.75,1.67-4.13,2.51a3.12,3.12,0,0,1-.52.2l-.12-.09c.17-.49.3-1,.51-1.45A82.32,82.32,0,0,1,52,17.72a20.38,20.38,0,0,1,2.31-2.78c.93-.94,1.63-.81,2.08.44a32,32,0,0,1,1.35,4.8,84.48,84.48,0,0,1,1.5,14.28C59.24,35,59.19,35.45,59.16,35.94Z"/></g></g></svg>