<?xml version="1.0" standalone="no"?><!DOCTYPE svg PUBLIC "-//W3C//DTD SVG 1.1//EN" "http://www.w3.org/Graphics/SVG/1.1/DTD/svg11.dtd"><svg t="1550286210361" class="icon" style="" viewBox="0 0 1685 1024" version="1.1" xmlns="http://www.w3.org/2000/svg" p-id="4893" xmlns:xlink="http://www.w3.org/1999/xlink" width="329.1015625" height="200"><defs><style type="text/css"></style></defs><path d="M1685.504248 835.764829a842.737065 842.737065 0 0 0-1685.398836 0c-0.030118 0.662588-0.105412 1.310118-0.105412 1.987765a40.372712 40.372712 0 0 0 80.745424 0h0.060235a762.0067 762.0067 0 0 1 1523.998342 0h0.060235a40.372712 40.372712 0 1 0 80.745424 0c0-0.677647-0.060235-1.325177-0.105412-2.002824z" fill="#fff" p-id="4894"></path><path d="M1685.504248 835.764829A839.153065 839.153065 0 0 0 1474.620452 285.967101l-63.638597 49.769419a758.874465 758.874465 0 0 1 193.807087 502.001015h0.075294a40.372712 40.372712 0 1 0 80.745424 0c0-0.677647-0.060235-1.325177-0.105412-2.002824z" fill="#19FF00" p-id="4895"></path><path d="M865.099421 1020.220385a128.150607 128.150607 0 0 0 41.246124-18.341649L1411.313149 752.941287l-563.787377 14.87812a128.421666 128.421666 0 1 0 17.558591 252.416037z" fill="#9B9B9B" p-id="4896"></path></svg>