<?xml version="1.0" standalone="no"?><!DOCTYPE svg PUBLIC "-//W3C//DTD SVG 1.1//EN" "http://www.w3.org/Graphics/SVG/1.1/DTD/svg11.dtd"><svg t="1550286197520" class="icon" style="" viewBox="0 0 1685 1024" version="1.1" xmlns="http://www.w3.org/2000/svg" p-id="4767" xmlns:xlink="http://www.w3.org/1999/xlink" width="329.1015625" height="200"><defs><style type="text/css"></style></defs><path d="M1685.503009 835.764515a842.736445 842.736445 0 0 0-1685.397597 0c-0.030118 0.662588-0.105412 1.325176-0.105412 1.987764a40.372682 40.372682 0 0 0 80.745364 0h0.060236a762.00614 762.00614 0 0 1 1523.997221 0h0.060235a40.372682 40.372682 0 1 0 80.745364 0c0-0.662588-0.060235-1.325176-0.105411-2.002822z" fill="#fff" p-id="4768"></path><path d="M958.41826 862.719794a128.150513 128.150513 0 0 0-19.004224-40.944917l-257.14432-500.856176 24.063986 563.455668a128.421572 128.421572 0 1 0 252.084558-21.654575z" fill="#9B9B9B" p-id="4769"></path><path d="M354.032733 156.867974l48.549618 64.496903a757.533672 757.533672 0 0 1 440.229389-140.619212V0.000301A837.812213 837.812213 0 0 0 354.032733 156.867974z" fill="#FFE000" p-id="4770"></path></svg>