<?xml version="1.0" standalone="no"?><!DOCTYPE svg PUBLIC "-//W3C//DTD SVG 1.1//EN" "http://www.w3.org/Graphics/SVG/1.1/DTD/svg11.dtd"><svg t="1550286222985" class="icon" style="" viewBox="0 0 1691 1024" version="1.1" xmlns="http://www.w3.org/2000/svg" p-id="5019" xmlns:xlink="http://www.w3.org/1999/xlink" width="330.2734375" height="200"><defs><style type="text/css"></style></defs><path d="M1691.011725 838.495736a845.490754 845.490754 0 0 0-1690.905969 0c-0.030216 0.664753-0.105756 1.314399-0.105756 1.99426a40.504632 40.504632 0 0 0 81.009264 0h0.060432a764.496599 764.496599 0 0 1 1528.978089 0h0.060432a40.504632 40.504632 0 1 0 81.009264 0c0-0.679861-0.060432-1.329507-0.105756-2.009368z" fill="#fff" p-id="5020"></path><path d="M851.186482 0.15108l-0.543889 80.979048a761.399452 761.399452 0 0 1 510.152892 200.181414l55.809068-58.604053A842.015907 842.015907 0 0 0 851.20159 0.15108z" fill="#00FFE6" p-id="5021"></path><path d="M957.214646 941.517401a128.569346 128.569346 0 0 0 8.656902-44.447828l85.828725-558.302188-312.071494 471.974897a128.841291 128.841291 0 1 0 217.585867 130.775119z" fill="#9B9B9B" p-id="5022"></path></svg>