<?xml version="1.0" standalone="no"?><!DOCTYPE svg PUBLIC "-//W3C//DTD SVG 1.1//EN" "http://www.w3.org/Graphics/SVG/1.1/DTD/svg11.dtd"><svg t="1550285837656" class="icon" style="" viewBox="0 0 1685 1024" version="1.1" xmlns="http://www.w3.org/2000/svg" p-id="4515" xmlns:xlink="http://www.w3.org/1999/xlink" width="329.1015625" height="200"><defs><style type="text/css"></style></defs><path d="M1685.398415 835.712351a842.684149 842.684149 0 0 0-1685.29301 0c-0.030116 0.662547-0.105405 1.310036-0.105405 1.98764a40.370177 40.370177 0 0 0 80.740354 0h0.060231a761.958854 761.958854 0 0 1 1523.90265 0h0.060231a40.370177 40.370177 0 1 0 80.740354 0c0-0.677605-0.060232-1.325093-0.105405-2.002698z" fill="#fff" p-id="4516"></path><path d="M349.478342 160.065266A847.608076 847.608076 0 0 0 68.483239 510.160981l76.403684 27.043953A766.415986 766.415986 0 0 1 399.590967 223.458942z" fill="#d81e06" p-id="4517"></path><path d="M921.617557 800.476911a128.14256 128.14256 0 0 0-38.216899-24.032376L395.269355 495.9614 721.859719 955.723656a128.413602 128.413602 0 1 0 199.757838-155.246745z" fill="#9B9B9B" p-id="4518"></path></svg>