<svg width="12" height="12" xmlns="http://www.w3.org/2000/svg"><g fill="#FFF" fill-rule="nonzero"><path d="M11.066 2.77v8.307H2.758V2.769h8.308zm0-.924H2.758a.923.923 0 0 0-.923.923v8.308c0 .51.414.923.923.923h8.308c.51 0 .923-.413.923-.923V2.769a.923.923 0 0 0-.923-.923z"/><path d="M10.143 6.923a.462.462 0 0 1-.461.462H4.143a.462.462 0 1 1 0-.923h5.539a.462.462 0 0 1 .461.461z"/><path d="M6.912 10.154a.462.462 0 0 1-.461-.462V4.154a.462.462 0 0 1 .923 0v5.538a.462.462 0 0 1-.462.462zM.466 9.21a.462.462 0 0 1-.462-.461V.462C.004.207.211 0 .466 0h8.307a.462.462 0 1 1 0 .923H.927V8.75a.462.462 0 0 1-.461.461z"/></g></svg>