<?xml version="1.0" encoding="UTF-8"?>
<svg width="22px" height="22px" viewBox="0 0 22 22" version="1.1" xmlns="http://www.w3.org/2000/svg" xmlns:xlink="http://www.w3.org/1999/xlink">
    <title>agora_自适应视频分辨率</title>
    <g id="Page-1" stroke="none" stroke-width="1" fill="none" fill-rule="evenodd">
        <g id="agora_自适应视频分辨率" transform="translate(1.000000, 1.000000)" fill="#ADB9D7" fill-rule="nonzero" stroke="#ADB9D7" stroke-width="0.5">
            <path d="M4.93752693,0.909090909 L0.517018526,0.909090909 C0.231477079,0.909090909 0,0.705583977 0,0.454545455 C0,0.203506932 0.231477079,0 0.517018526,0 L4.93752693,0 C5.22306838,0 5.45454545,0.203506932 5.45454545,0.454545455 C5.45454545,0.705583977 5.22306838,0.909090909 4.93752693,0.909090909 Z" id="路径"></path>
            <path d="M0.507674145,5.3519695 C0.228224954,5.3519695 0.00168662507,5.1244141 0.00168662507,4.84371029 L0.00168662507,0.508259212 C0.00168662507,0.2275554 0.228224954,8.8817842e-16 0.507674145,8.8817842e-16 C0.787123336,8.8817842e-16 1.01366166,0.2275554 1.01366166,0.508259212 L1.01366166,4.84371029 C1.01366166,5.1244141 0.787123336,5.3519695 0.507674145,5.3519695 L0.507674145,5.3519695 Z M12.123461,1.01651842 L7.80738743,1.01651842 C7.52793824,1.01651842 7.30139991,0.788963024 7.30139991,0.508259212 C7.30139991,0.2275554 7.52793824,0 7.80738743,0 L12.1318941,0 C12.4113433,0 12.6378816,0.2275554 12.6378816,0.508259212 C12.6378816,0.788963024 12.4113433,1.01651842 12.1318941,1.01651842 L12.123461,1.01651842 Z M0.50598752,12.6776789 C0.226538329,12.6776789 0,12.4501235 0,12.1694197 L0,7.82549767 C0,7.54479386 0.226538329,7.31723846 0.50598752,7.31723846 C0.78543671,7.31723846 1.01197504,7.54479386 1.01197504,7.82549767 L1.01197504,12.1694197 C1.01197504,12.3042185 0.958665793,12.4334962 0.863774726,12.5288133 C0.768883659,12.6241304 0.640183754,12.6776789 0.50598752,12.6776789 L0.50598752,12.6776789 Z M19.4451004,1.01651842 L15.1172205,1.01651842 C14.8377713,1.01651842 14.6112329,0.788963024 14.6112329,0.508259212 C14.6112329,0.2275554 14.8377713,0 15.1172205,0 L19.4451004,0 C19.7245496,0 19.9510879,0.2275554 19.9510879,0.508259212 C19.9510879,0.788963024 19.7245496,1.01651842 19.4451004,1.01651842 Z M0.532973521,20 C0.25352433,20 0.0269860011,19.7724446 0.0269860011,19.4917408 L0.0269860011,15.1478187 C0.0269860011,14.8671149 0.25352433,14.6395595 0.532973521,14.6395595 C0.812422712,14.6395595 1.03896104,14.8671149 1.03896104,15.1478187 L1.03896104,19.4917408 C1.03896104,19.7724446 0.812422712,20 0.532973521,20 L0.532973521,20 Z M19.4940125,5.20965693 L4.67532468,5.20965693 C4.39587549,5.20965693 4.16933716,4.98210152 4.16933716,4.70139771 C4.16933716,4.4206939 4.39587549,4.1931385 4.67532468,4.1931385 L19.4940125,4.1931385 C19.7734617,4.1931385 20,4.42069391 20,4.70139771 C20,4.98210151 19.7734617,5.20965693 19.4940125,5.20965693 L19.4940125,5.20965693 Z" id="形状"></path>
            <path d="M19.4933288,20 L0.50667117,20 C0.22684441,20 0,19.7964931 0,19.5454545 C0,19.294416 0.22684441,19.0909091 0.50667117,19.0909091 L19.4933288,19.0909091 C19.7731556,19.0909091 20,19.294416 20,19.5454545 C20,19.7964931 19.7731556,20 19.4933288,20 L19.4933288,20 Z" id="路径"></path>
            <path d="M4.75667047,20 C4.47266012,20 4.24242424,19.7731541 4.24242424,19.4933255 L4.24242424,4.74909867 C4.24242424,4.46927011 4.47266013,4.24242424 4.75667047,4.24242424 C5.04068081,4.24242424 5.2709167,4.46927011 5.2709167,4.74909867 L5.2709167,19.4933255 C5.2709167,19.7731541 5.04068082,20 4.75667047,20 L4.75667047,20 Z M13.4251477,9.44259311 L9.0232,9.44259311 C8.73918966,9.44259311 8.50895378,9.21574723 8.50895378,8.93591865 C8.50895378,8.65609007 8.73918966,8.42924419 9.0232,8.42924419 L13.4251477,8.42924419 C13.7091581,8.42924419 13.9393939,8.65609007 13.9393939,8.93591865 C13.9393939,9.21574723 13.7091581,9.44259311 13.4251477,9.44259311 L13.4251477,9.44259311 Z" id="形状"></path>
            <path d="M8.69624861,13.7493649 C8.41213653,13.7493649 8.18181818,13.5219059 8.18181818,13.2413209 L8.18181818,8.89754445 C8.18181818,8.6169595 8.41213654,8.38950045 8.69624861,8.38950045 C8.98036069,8.38950045 9.21067905,8.6169595 9.21067905,8.89754445 L9.21067905,13.2413209 C9.21067905,13.5219059 8.9803607,13.7493649 8.69624861,13.7493649 L8.69624861,13.7493649 Z M19.4838548,19.9915326 C19.1997427,19.9915326 18.9694244,19.7640735 18.9694244,19.4834886 L18.9299847,0.50804403 C18.9299847,0.22745906 19.160303,0 19.4444151,0 C19.5808506,0 19.711698,0.0535259138 19.8081724,0.148802651 C19.9046468,0.244079389 19.9588456,0.373302376 19.9588456,0.50804403 L20,19.491956 C20,19.7725409 19.7696816,20 19.4855696,20 L19.4838548,19.9915326 Z" id="形状"></path>
            <path d="M15.2553076,15.7575758 C15.1220293,15.7574585 14.9942526,15.7044344 14.9000693,15.610161 L8.64485885,9.3550838 C8.51036886,9.22980095 8.45500798,9.04112011 8.50049433,8.8630609 C8.54598067,8.68500169 8.68505957,8.545963 8.86317028,8.5004898 C9.04128098,8.45501661 9.23001638,8.51036148 9.35533546,8.64481259 L15.6105459,14.8998898 C15.7541294,15.0436103 15.7970515,15.25961 15.7193205,15.4472834 C15.6415895,15.6349568 15.4584916,15.7573971 15.2553076,15.7575758 L15.2553076,15.7575758 Z" id="路径"></path>
        </g>
    </g>
</svg>