<?xml version="1.0" standalone="no"?><!DOCTYPE svg PUBLIC "-//W3C//DTD SVG 1.1//EN" "http://www.w3.org/Graphics/SVG/1.1/DTD/svg11.dtd"><svg t="1564563256686" class="icon" viewBox="0 0 1024 1024" version="1.1" xmlns="http://www.w3.org/2000/svg" p-id="22344" xmlns:xlink="http://www.w3.org/1999/xlink" width="200" height="200"><defs><style type="text/css"></style></defs><path d="M517.442132 1024A512.512 512.512 0 0 1 0.066132 517.205333 509.269333 509.269333 0 0 1 278.679465 56.149333a43.093333 43.093333 0 0 1 39.253333 76.8A423.765333 423.765333 0 0 0 86.252798 516.352a426.325333 426.325333 0 0 0 430.336 421.290667 426.325333 426.325333 0 0 0 421.290667-430.250667 424.96 424.96 0 0 0-231.936-374.784 43.093333 43.093333 0 1 1 39.253333-76.714667A511.061333 511.061333 0 0 1 1024.066132 506.624 512.597333 512.597333 0 0 1 517.442132 1024" p-id="22345" fill="#ffffff"></path><path d="M512.066132 597.333333a42.666667 42.666667 0 0 1-42.666667-42.666666v-512a42.666667 42.666667 0 0 1 85.333333 0v512A42.666667 42.666667 0 0 1 512.066132 597.333333" p-id="22346" fill="#ffffff"></path></svg>