<svg width="30" height="31" viewBox="0 0 30 31" fill="none" xmlns="http://www.w3.org/2000/svg">
<mask id="mask0_115_268" style="mask-type:luminance" maskUnits="userSpaceOnUse" x="0" y="0" width="30" height="31">
<path d="M15.0098 0.519995C23.2898 0.519995 29.9998 7.25999 29.9998 15.575C29.9998 19.36 28.6098 22.82 26.3098 25.47C25.4898 21.455 21.9498 18.44 17.7148 18.44C15.3898 18.44 13.2798 19.345 11.7098 20.825L11.6398 20.89V17.855H11.6148V12.75C11.5098 12.015 11.7298 11.245 12.2748 10.67L12.3198 10.625L13.1498 9.79499C14.1198 8.81999 15.6948 8.81999 16.6648 9.79499C17.6248 10.76 17.6348 12.31 16.7048 13.285L16.6648 13.325L15.8348 14.155L15.7998 14.19C15.7398 14.25 15.6748 14.305 15.6098 14.355L15.5448 14.405L14.2448 15.695V15.79H18.1298L18.7248 15.19C20.6798 13.115 20.6448 9.84499 18.6248 7.81499C16.6248 5.80499 13.4098 5.74999 11.3448 7.65499L11.2798 7.71499L10.2448 8.74999C10.1448 8.85999 10.0448 8.97499 9.95477 9.08999L9.88477 9.17499L5.28477 13.81C5.06477 14.03 4.94477 14.33 4.94477 14.64C4.94477 15.28 5.44977 15.795 6.07977 15.815H8.90477V29.305H8.92977V29.34C3.67477 27 0.00976562 21.715 0.00976562 15.565C0.00976562 7.25499 6.72477 0.509995 14.9998 0.509995L15.0098 0.519995ZM17.7148 21.085C21.0748 21.085 23.7998 23.79 23.8548 27.155V27.735C21.3748 29.56 18.3148 30.635 15.0048 30.635C13.8348 30.635 12.6948 30.5 11.5998 30.245C11.5798 30.08 11.5748 29.91 11.5698 29.735V27.155C11.6298 23.79 14.3548 21.085 17.7148 21.085Z" fill="white"/>
</mask>
<g mask="url(#mask0_115_268)">
<path d="M30.02 0.5H0V30.655H30.02V0.5Z" fill="#004588"/>
</g>
</svg>
