<?xml version="1.0" standalone="no"?><!DOCTYPE svg PUBLIC "-//W3C//DTD SVG 1.1//EN" "http://www.w3.org/Graphics/SVG/1.1/DTD/svg11.dtd"><svg t="1696925391371" class="icon" viewBox="0 0 1024 1024" version="1.1" xmlns="http://www.w3.org/2000/svg" p-id="6490" xmlns:xlink="http://www.w3.org/1999/xlink" width="200" height="200"><path d="M947.2 921.6h-870.4C34.4576 921.6 0 887.1424 0 844.8v-665.6C0 136.8576 34.4576 102.4 76.8 102.4h870.4c42.3424 0 76.8 34.4576 76.8 76.8v665.6c0 42.3424-34.4576 76.8-76.8 76.8zM76.8 153.6a25.6 25.6 0 0 0-25.6 25.6v665.6a25.6 25.6 0 0 0 25.6 25.6h870.4a25.6 25.6 0 0 0 25.6-25.6v-665.6a25.6 25.6 0 0 0-25.6-25.6h-870.4z" fill="" p-id="6491"></path><path d="M486.4 307.2h-307.2a25.6 25.6 0 0 1 0-51.2h307.2a25.6 25.6 0 0 1 0 51.2zM486.4 460.8h-307.2a25.6 25.6 0 0 1 0-51.2h307.2a25.6 25.6 0 0 1 0 51.2zM486.4 563.2h-307.2a25.6 25.6 0 0 1 0-51.2h307.2a25.6 25.6 0 0 1 0 51.2zM486.4 665.6h-307.2a25.6 25.6 0 0 1 0-51.2h307.2a25.6 25.6 0 0 1 0 51.2zM435.2 768h-256a25.6 25.6 0 0 1 0-51.2h256a25.6 25.6 0 0 1 0 51.2zM918.6816 335.0528l-41.6256-30.2592-15.9232-48.9472h-51.456l-41.6256-30.2592-41.6256 30.2592h-51.456l-15.9232 48.9472-41.6256 30.2592 15.9232 48.9472-15.9232 48.9472 41.6256 30.2592 6.7584 20.7872c-0.1024 0.8192-0.1024 1.5872-0.1024 2.4064v256a25.6 25.6 0 0 0 43.7248 18.1248l58.6752-58.6752 58.6752 58.6752a25.2928 25.2928 0 0 0 27.904 5.5296 25.6 25.6 0 0 0 15.8208-23.6544v-256A36.2496 36.2496 0 0 0 870.4 483.9936l6.7584-20.7872 41.6256-30.2592-15.9232-48.9472 15.9232-48.9472z m-241.152 19.5584l24.9856-18.176 9.5744-29.3888h30.9248L768 288.8704l24.9856 18.176h30.9248l9.5744 29.3888 24.9856 18.176-9.5744 29.3888 9.5744 29.3888-24.9856 18.176-9.5744 29.3888h-30.9248L768 479.1296l-24.9856-18.176h-30.9248l-9.5744-29.3888-24.9856-18.176 9.5744-29.3888-9.5744-29.3888z m108.5952 292.864a25.6 25.6 0 0 0-36.1984 0l-33.0752 33.0752v-168.448h9.5744l41.6256 30.2592 41.6256-30.2592h9.5744v168.448l-33.0752-33.0752z" fill="" p-id="6492"></path></svg>