<svg version="1.2" baseProfile="tiny-ps" xmlns="http://www.w3.org/2000/svg" viewBox="0 0 306 306" width="306" height="306">
	<title>New Project</title>
	<style>
		tspan { white-space:pre }
		.shp0 { fill: #0042d6 } 
	</style>
	<g id="&lt;Group&gt;">
		<g id="&lt;Group&gt;">
			<path id="&lt;Path&gt;" class="shp0" d="M134.08 35.06L89.19 62.5C83.41 66.03 79.88 72.33 79.88 79.11L79.88 106.67C79.88 112.35 86.1 115.84 90.94 112.88L146.9 78.72C149.99 76.84 153.87 76.84 156.96 78.72L215.36 114.28C220.21 117.24 226.43 113.75 226.43 108.07L226.43 80.51C226.43 73.73 222.9 67.43 217.11 63.9L169.77 35.06C158.82 28.36 145.04 28.36 134.08 35.06Z" />
			<path id="&lt;Path&gt;" class="shp0" d="M173.78 120.2L159.42 111.43C157.5 110.26 155.32 109.68 153.15 109.68C150.98 109.68 148.81 110.26 146.88 111.43L132.52 120.2C129.61 121.97 127.84 125.14 127.84 128.55L127.84 261.49C127.84 265.54 130.09 268.56 133.84 270.36C138.19 272.47 140.95 273.15 143.97 274.07C146.98 274.98 150.07 275.52 153.15 275.56C156.23 275.52 159.33 274.98 162.33 274.07C165.36 273.15 168.12 272.47 172.47 270.36C176.21 268.56 178.47 265.54 178.47 261.49L178.47 128.55C178.47 125.14 176.69 121.97 173.78 120.2Z" />
			<g id="&lt;Group&gt;">
				<path id="&lt;Path&gt;" class="shp0" d="M237.6 94.61L237.6 125.75C237.6 130.02 239.82 133.99 243.47 136.22L260.08 146.46C262.28 147.8 263.62 150.2 263.62 152.78L263.62 185.16C263.62 187.91 262.1 190.44 259.66 191.72L203.59 221.13C200.31 222.85 198.26 226.25 198.26 229.96L198.26 259.44C198.26 266.71 205.98 271.37 212.41 267.99L291.44 226.52C300.29 221.87 305.82 212.7 305.82 202.7L305.82 137.99C305.82 128.62 300.95 119.92 292.95 115.04L249.1 88.15C244.06 85.08 237.6 88.7 237.6 94.61Z" />
				<path id="&lt;Path&gt;" class="shp0" d="M68.66 94.64L68.66 125.79C68.66 130.06 66.43 134.03 62.79 136.26L46.23 146.46C44.03 147.8 42.68 150.2 42.68 152.78L42.68 185.16C42.68 187.91 44.21 190.44 46.64 191.72L102.72 221.13C105.99 222.85 108.05 226.25 108.05 229.96L108.05 259.44C108.05 266.71 100.33 271.37 93.89 267.99L14.86 226.52C6.02 221.87 0.48 212.7 0.48 202.7L0.48 137.99C0.48 128.62 5.36 119.92 13.36 115.04L57.16 88.19C62.2 85.11 68.66 88.74 68.66 94.64Z" />
			</g>
		</g>
	</g>
</svg>