<svg version="1.2" baseProfile="tiny-ps" xmlns="http://www.w3.org/2000/svg" viewBox="0 0 819 246" width="102" height="31">
	<title>New Project</title>
	<style>
		tspan { white-space:pre }
		.shp0 { fill: #0042d6 } 
		.shp1 { fill: #ffffff } 
	</style>
	<g id="&lt;Group&gt;">
		<g id="&lt;Group&gt;">
			<path id="&lt;Path&gt;" class="shp0" d="M134.08 5.06L89.19 32.5C83.41 36.03 79.88 42.33 79.88 49.11L79.88 76.67C79.88 82.35 86.1 85.84 90.94 82.88L146.9 48.72C149.99 46.84 153.87 46.84 156.96 48.72L215.36 84.28C220.21 87.24 226.43 83.75 226.43 78.07L226.43 50.51C226.43 43.73 222.9 37.43 217.11 33.9L169.77 5.06C158.82 -1.64 145.04 -1.64 134.08 5.06Z" />
			<path id="&lt;Path&gt;" class="shp0" d="M173.78 90.2L159.42 81.43C157.5 80.26 155.32 79.68 153.15 79.68C150.98 79.68 148.81 80.26 146.88 81.43L132.52 90.2C129.61 91.97 127.84 95.14 127.84 98.55L127.84 231.49C127.84 235.54 130.09 238.56 133.84 240.36C138.19 242.47 140.95 243.15 143.97 244.07C146.98 244.98 150.07 245.52 153.15 245.56C156.23 245.52 159.33 244.98 162.33 244.07C165.36 243.15 168.12 242.47 172.47 240.36C176.21 238.56 178.47 235.54 178.47 231.49L178.47 98.55C178.47 95.14 176.69 91.97 173.78 90.2Z" />
			<g id="&lt;Group&gt;">
				<path id="&lt;Path&gt;" class="shp0" d="M237.6 64.61L237.6 95.75C237.6 100.02 239.82 103.99 243.47 106.22L260.08 116.46C262.28 117.8 263.62 120.2 263.62 122.78L263.62 155.16C263.62 157.91 262.1 160.44 259.66 161.72L203.59 191.13C200.31 192.85 198.26 196.25 198.26 199.96L198.26 229.44C198.26 236.71 205.98 241.37 212.41 237.99L291.44 196.52C300.29 191.87 305.82 182.7 305.82 172.7L305.82 107.99C305.82 98.62 300.95 89.92 292.95 85.04L249.1 58.15C244.06 55.08 237.6 58.7 237.6 64.61Z" />
				<path id="&lt;Path&gt;" class="shp0" d="M68.66 64.64L68.66 95.79C68.66 100.06 66.43 104.03 62.79 106.26L46.23 116.46C44.03 117.8 42.68 120.2 42.68 122.78L42.68 155.16C42.68 157.91 44.21 160.44 46.64 161.72L102.72 191.13C105.99 192.85 108.05 196.25 108.05 199.96L108.05 229.44C108.05 236.71 100.33 241.37 93.89 237.99L14.86 196.52C6.02 191.87 0.48 182.7 0.48 172.7L0.48 107.99C0.48 98.62 5.36 89.92 13.36 85.04L57.16 58.19C62.2 55.11 68.66 58.74 68.66 64.64Z" />
			</g>
		</g>
		<g id="&lt;Group&gt;">
			<g id="&lt;Group&gt;">
				<g id="&lt;Group&gt;">
					<path id="&lt;Path&gt;" fill-rule="evenodd" class="shp1" d="M672.08 60.53L636.13 60.53C635.92 60.53 635.76 60.37 635.76 60.16L635.76 57.13C635.76 56.93 635.92 56.76 636.13 56.76L676.15 56.76L676.15 56.76C676.15 58.16 674.85 60.53 672.08 60.53ZM676.12 47.85C675.92 49.26 674.81 51.25 673.02 51.25L636.25 51.25C636.05 51.25 635.88 51.09 635.88 50.88L635.88 45.38C635.88 45.17 636.05 45.01 636.25 45.01L645.94 45.01C646.15 45.01 646.32 45.17 646.32 45.38L646.32 47.06C646.32 47.26 646.48 47.43 646.69 47.43L675.75 47.43C675.97 47.43 676.15 47.63 676.12 47.85ZM702.71 49.13L699.56 61C699.54 61.16 699.4 61.28 699.24 61.28L690.02 61.28C689.82 61.28 689.67 61.1 689.7 60.91L693.96 45.28C693.99 45.13 694.12 45.01 694.28 45.01L717.25 45.01C717.4 45.01 717.54 45.13 717.56 45.28L721.65 60.91C721.68 61.11 721.53 61.28 721.33 61.28L712.24 61.28C712.08 61.28 711.95 61.16 711.93 61L708.76 49.13C708.74 48.97 708.6 48.85 708.44 48.85L703.02 48.85C702.86 48.85 702.73 48.97 702.71 49.13ZM747.92 45.1L747.92 89.81C747.92 94.44 744.16 98.19 739.54 98.19L735.42 98.19C735.18 98.19 734.99 98 734.99 97.76L734.99 95.6L734.99 95.6C736.89 95.6 738.42 94.06 738.42 92.16L738.42 45.1C738.42 44.92 738.57 44.77 738.76 44.77L747.58 44.77C747.77 44.77 747.92 44.92 747.92 45.1ZM793.8 44.94L817.93 44.94C818.08 44.94 818.2 45.06 818.2 45.21L818.2 64.77C818.2 69.47 814.39 73.27 809.7 73.27L793.8 73.27C793.65 73.27 793.53 73.15 793.53 73L793.53 45.21C793.53 45.06 793.65 44.94 793.8 44.94ZM803.72 69.47C804.8 69.29 808.32 68.43 808.32 64.41L808.32 48.96C808.32 48.82 808.2 48.69 808.05 48.69L803.68 48.69C803.53 48.69 803.41 48.82 803.41 48.96L803.41 69.2C803.41 69.36 803.56 69.49 803.72 69.47ZM761.3 96.95L761.3 76.12C761.3 75.94 761.44 75.79 761.63 75.79L817.81 75.79C817.99 75.79 818.14 75.94 818.14 76.12L818.14 88.71C818.14 93.44 814.31 97.28 809.57 97.28L761.63 97.28C761.44 97.28 761.3 97.13 761.3 96.95ZM771.55 93.05C771.55 93.24 771.7 93.38 771.88 93.38L803.67 93.38C806 93.38 807.89 91.5 807.89 89.16L807.89 87.81L807.88 87.81L807.88 85.27L807.89 85.27L807.89 79.9C807.89 79.71 807.74 79.56 807.56 79.56L771.88 79.56C771.7 79.56 771.55 79.71 771.55 79.9L771.55 84.32C771.55 84.5 771.7 84.65 771.88 84.65L804.48 84.65C804.68 84.65 804.84 84.83 804.81 85.03C804.6 86.46 803.27 88.53 800.93 88.42L771.88 88.42C771.7 88.42 771.55 88.57 771.55 88.75L771.55 93.05ZM705.7 89.9L721.46 94.09C721.6 94.13 721.71 94.26 721.71 94.42L721.71 98.41C721.71 98.63 721.5 98.79 721.29 98.74L696.15 92.35C692.04 90.89 689.64 87.93 689.64 83.98L689.64 65.12C689.64 64.93 689.79 64.78 689.98 64.78L721.65 64.78C721.84 64.78 721.99 64.93 721.99 65.12L721.99 78.44C721.99 82.08 719.03 85.04 715.39 85.04L709.57 85.04C709.38 85.04 709.23 84.89 709.23 84.7L709.23 82.71C709.23 82.54 709.35 82.39 709.52 82.37C710.7 82.23 711.62 81.22 711.62 80L711.62 69.03C711.62 68.85 711.47 68.69 711.28 68.69L700.41 68.69C700.22 68.69 700.07 68.85 700.07 69.03L700.07 82.58C700.07 86.01 702.38 89.02 705.7 89.9ZM733.87 84.97L726.27 84.97C725.89 84.97 725.59 84.67 725.59 84.29L725.59 50.7C725.59 50.52 725.73 50.38 725.9 50.38L734.23 50.38C734.4 50.38 734.55 50.52 734.55 50.7L734.55 84.29C734.55 84.67 734.24 84.97 733.87 84.97ZM618.55 96.87L621.66 66.67C621.68 66.48 621.84 66.33 622.03 66.33L631.48 66.33C631.7 66.33 631.87 66.52 631.85 66.74L628.79 96.94C628.77 97.13 628.61 97.27 628.42 97.27L618.92 97.27C618.7 97.27 618.53 97.08 618.55 96.87ZM631.58 51.25L618.76 51.25C618.59 51.25 618.44 51.11 618.44 50.94L618.44 47.79C618.44 47.62 618.59 47.48 618.76 47.48L631.58 47.48C631.75 47.48 631.89 47.62 631.89 47.79L631.89 50.94C631.89 51.11 631.75 51.25 631.58 51.25ZM631.58 60.53L618.76 60.53C618.59 60.53 618.44 60.39 618.44 60.22L618.44 57.07C618.44 56.9 618.59 56.76 618.76 56.76L631.58 56.76C631.75 56.76 631.89 56.9 631.89 57.07L631.89 60.22C631.89 60.39 631.75 60.53 631.58 60.53ZM781.37 51.26L781.37 55.72C781.37 55.87 781.49 55.99 781.64 55.99L791.62 55.99L791.62 59.47C791.62 59.62 791.5 59.75 791.35 59.75L783.33 59.75C783.12 59.75 782.99 59.98 783.11 60.16L791.35 72.86C791.47 73.04 791.34 73.27 791.12 73.27L781.39 73.27C781.3 73.27 781.22 73.23 781.17 73.16L776.44 66.47C776.33 66.32 776.1 66.32 775.99 66.47L771.38 73.16C771.33 73.23 771.25 73.27 771.16 73.27L761.37 73.27C761.15 73.27 761.02 73.04 761.14 72.86L769.44 60.16C769.56 59.98 769.43 59.75 769.21 59.75L761.14 59.75C760.99 59.75 760.87 59.62 760.87 59.48L760.87 56.26C760.87 56.11 760.99 55.99 761.14 55.99L770.85 55.99C771 55.99 771.12 55.87 771.12 55.72L771.12 51.26C771.12 51.11 771 50.99 770.85 50.99L761.5 50.99C761.36 50.99 761.23 50.86 761.23 50.71L761.23 45.21C761.23 45.06 761.36 44.94 761.5 44.94L770.85 44.94C771 44.94 771.12 45.06 771.12 45.21L771.12 47.07C771.12 47.21 771.24 47.34 771.39 47.34L791.35 47.34C791.5 47.34 791.62 47.46 791.62 47.61L791.62 50.7C791.62 50.85 791.5 50.97 791.35 50.97L781.64 50.99C781.49 50.99 781.37 51.11 781.37 51.26ZM604.82 47.8L604.82 81.94C604.82 85.23 602.16 87.89 598.87 87.89L581.74 87.89C581.53 87.89 581.37 88.05 581.37 88.25L581.37 97.02C581.37 97.2 581.22 97.34 581.05 97.34L571.21 97.34C570.99 97.34 570.81 97.16 570.81 96.94L570.81 88.25C570.81 88.05 570.64 87.89 570.44 87.89L547.73 87.89C547.52 87.89 547.36 87.72 547.36 87.52L547.36 47.8C547.36 47.6 547.52 47.43 547.73 47.43L570.44 47.43C570.46 47.43 570.47 47.42 570.49 47.42L570.81 47.42L570.81 45.28C570.81 45.13 570.93 45.01 571.08 45.01L581.09 45.01C581.24 45.01 581.37 45.13 581.37 45.28L581.37 47.42L581.68 47.42C581.7 47.42 581.72 47.43 581.74 47.43L604.45 47.43C604.65 47.43 604.82 47.6 604.82 47.8ZM570.81 51.57C570.81 51.36 570.64 51.2 570.44 51.2L557.92 51.2C557.71 51.2 557.55 51.37 557.55 51.57L557.55 83.78C557.55 83.98 557.71 84.15 557.92 84.15L570.44 84.15C570.64 84.15 570.81 83.98 570.81 83.78L570.81 51.57ZM594.63 51.57C594.63 51.36 594.46 51.2 594.26 51.2L581.74 51.2C581.53 51.2 581.37 51.36 581.37 51.57L581.37 83.78C581.37 83.98 581.53 84.15 581.74 84.15L588.68 84.15C591.97 84.15 594.63 81.49 594.63 78.21L594.63 51.57ZM678.46 93.34C678.59 93.38 678.68 93.49 678.68 93.63L678.68 98.2C678.68 98.4 678.49 98.54 678.3 98.49L669.83 96.16C666.44 95.22 664.09 92.14 664.09 88.62L664.09 70.41C664.03 70.31 663.93 70.25 663.81 70.25L636.11 70.25C635.91 70.25 635.76 70.09 635.76 69.9L635.76 66.75C635.76 66.56 635.91 66.4 636.11 66.4L674.56 66.4L674.56 88.26C674.56 90.64 676.16 92.72 678.46 93.34Z" />
				</g>
				<g id="&lt;Group&gt;">
					<path id="&lt;Path&gt;" class="shp1" d="M492.43 82.95L492.43 60.04C492.43 56.19 495.56 53.07 499.41 53.07L524.2 53.07L526.53 44.77L499.41 44.77C490.97 44.77 484.13 51.61 484.13 60.04L484.13 82.95C484.13 91.38 490.97 98.22 499.41 98.22L515.79 98.22L517.97 89.92L499.41 89.92C495.56 89.92 492.43 86.8 492.43 82.95ZM465.17 44.77L465.17 98.22L473.48 98.22L473.48 44.77L465.17 44.77ZM441.92 50.13C441.11 46.97 438.27 44.77 435.01 44.77L427.11 44.77C423.95 44.77 421.13 46.89 420.26 49.93L409.27 87.63C408.88 88.98 407.63 89.92 406.21 89.92L379.17 89.92C375.32 89.92 372.2 86.8 372.2 82.95L372.2 60.04C372.2 56.19 375.32 53.07 379.17 53.07L403.96 53.07L406.3 44.77L379.17 44.77C370.74 44.77 363.9 51.61 363.9 60.04L363.9 82.95C363.9 91.38 370.74 98.22 379.17 98.22L407.43 98.22C411.8 98.22 415.65 95.34 416.87 91.14L427.83 53.62C427.93 53.3 428.23 53.07 428.57 53.07L433.5 53.07C433.85 53.07 434.16 53.31 434.24 53.65L438.01 68.53L440.12 76.84L445.54 98.22L454.1 98.22L441.92 50.13Z" />
				</g>
			</g>
			<g id="&lt;Group&gt;">
				<g id="&lt;Group&gt;">
					<path id="&lt;Compound Path&gt;" fill-rule="evenodd" class="shp1" d="M389.32 139.34C388.42 138.17 387.28 137.27 385.9 136.64C384.52 136.01 383.09 135.7 381.62 135.7C379.82 135.7 378.2 136.03 376.74 136.71C375.29 137.38 374.04 138.3 373.01 139.47C371.97 140.64 371.17 142.01 370.6 143.59C370.03 145.16 369.75 146.85 369.75 148.65C369.75 150.33 370.02 151.92 370.56 153.42C371.1 154.92 371.88 156.24 372.9 157.38C373.92 158.52 375.16 159.42 376.63 160.08C378.1 160.74 379.76 161.07 381.62 161.07C383.45 161.07 385.06 160.69 386.44 159.94C387.82 159.19 388.99 158.14 389.95 156.79L393.59 159.54C393.35 159.87 392.93 160.34 392.33 160.96C391.73 161.57 390.94 162.19 389.95 162.8C388.96 163.41 387.77 163.95 386.37 164.42C384.98 164.88 383.36 165.12 381.54 165.12C379.02 165.12 376.74 164.64 374.72 163.68C372.7 162.72 370.97 161.46 369.55 159.9C368.12 158.34 367.03 156.58 366.28 154.61C365.53 152.65 365.16 150.66 365.16 148.65C365.16 146.19 365.56 143.92 366.37 141.83C367.18 139.75 368.32 137.95 369.77 136.44C371.23 134.92 372.97 133.75 375.01 132.91C377.05 132.07 379.3 131.65 381.76 131.65C383.86 131.65 385.92 132.05 387.95 132.86C389.97 133.67 391.63 134.92 392.92 136.59L389.32 139.34ZM398.81 132.46L403.13 132.46L403.13 145.68L419.64 145.68L419.64 132.46L423.96 132.46L423.96 164.31L419.64 164.31L419.64 149.73L403.13 149.73L403.13 164.31L398.81 164.31L398.81 132.46ZM432.15 132.46L436.46 132.46L436.46 164.31L432.15 164.31L432.15 132.46ZM444.65 132.46L450.32 132.46L467.86 158.64L467.95 158.64L467.95 132.46L472.27 132.46L472.27 164.31L466.78 164.31L449.06 138.12L448.97 138.12L448.97 164.31L444.65 164.31L444.65 132.46ZM490.45 132.46L494.36 132.46L507.99 164.31L502.95 164.31L499.76 156.43L484.6 156.43L481.45 164.31L476.41 164.31L490.45 132.46ZM498.18 152.65L492.25 138.03L492.16 138.03L486.13 152.65L498.18 152.65ZM534.62 132.46L538.54 132.46L552.17 164.31L547.13 164.31L543.94 156.43L528.78 156.43L525.63 164.31L520.59 164.31L534.62 132.46ZM542.36 152.65L536.42 138.03L536.33 138.03L530.31 152.65L542.36 152.65ZM560.04 132.46L560.04 151.98C560.04 152.97 560.17 154 560.45 155.06C560.71 156.13 561.16 157.11 561.79 158.01C562.42 158.91 563.25 159.64 564.27 160.21C565.29 160.78 566.55 161.07 568.05 161.07C569.55 161.07 570.81 160.78 571.83 160.21C572.85 159.64 573.67 158.91 574.3 158.01C574.93 157.11 575.38 156.13 575.65 155.06C575.92 154 576.06 152.97 576.06 151.98L576.06 132.46L580.37 132.46L580.37 152.65C580.37 154.51 580.06 156.2 579.43 157.72C578.8 159.23 577.93 160.54 576.82 161.65C575.71 162.76 574.4 163.62 572.91 164.22C571.41 164.82 569.79 165.12 568.05 165.12C566.31 165.12 564.69 164.82 563.19 164.22C561.69 163.62 560.39 162.76 559.28 161.65C558.17 160.54 557.3 159.23 556.67 157.72C556.04 156.2 555.72 154.51 555.72 152.65L555.72 132.46L560.04 132.46ZM594.64 136.5L584.38 136.5L584.38 132.46L609.21 132.46L609.21 136.5L598.95 136.5L598.95 164.31L594.64 164.31L594.64 136.5ZM628.42 165.12C625.99 165.12 623.76 164.69 621.72 163.83C619.68 162.98 617.93 161.8 616.48 160.3C615.02 158.8 613.88 157.03 613.06 154.99C612.23 152.96 611.82 150.75 611.82 148.38C611.82 146.01 612.23 143.81 613.06 141.77C613.88 139.73 615.02 137.96 616.48 136.46C617.93 134.96 619.68 133.78 621.72 132.93C623.76 132.07 625.99 131.65 628.42 131.65C630.85 131.65 633.08 132.07 635.12 132.93C637.16 133.78 638.91 134.96 640.36 136.46C641.82 137.96 642.96 139.73 643.78 141.77C644.61 143.81 645.02 146.01 645.02 148.38C645.02 150.75 644.61 152.96 643.78 154.99C642.96 157.03 641.82 158.8 640.36 160.3C638.91 161.8 637.16 162.98 635.12 163.83C633.08 164.69 630.85 165.12 628.42 165.12ZM628.42 161.07C630.25 161.07 631.9 160.73 633.37 160.05C634.84 159.38 636.1 158.47 637.15 157.33C638.2 156.19 639.01 154.85 639.58 153.31C640.15 151.76 640.43 150.12 640.43 148.38C640.43 146.64 640.15 145 639.58 143.45C639.01 141.91 638.2 140.57 637.15 139.43C636.1 138.29 634.84 137.38 633.37 136.71C631.9 136.03 630.25 135.7 628.42 135.7C626.59 135.7 624.94 136.03 623.47 136.71C622 137.38 620.74 138.29 619.69 139.43C618.64 140.57 617.83 141.91 617.26 143.45C616.69 145 616.41 146.64 616.41 148.38C616.41 150.12 616.69 151.76 617.26 153.31C617.83 154.85 618.64 156.19 619.69 157.33C620.74 158.47 622 159.38 623.47 160.05C624.94 160.73 626.59 161.07 628.42 161.07ZM650.91 132.46L657.34 132.46L667.47 156.57L667.65 156.57L677.68 132.46L684.11 132.46L684.11 164.31L679.79 164.31L679.79 138.12L679.7 138.12L668.95 164.31L666.07 164.31L655.32 138.12L655.23 138.12L655.23 164.31L650.91 164.31L650.91 132.46ZM706.61 165.12C704.18 165.12 701.94 164.69 699.9 163.83C697.86 162.98 696.12 161.8 694.66 160.3C693.21 158.8 692.07 157.03 691.24 154.99C690.42 152.96 690.01 150.75 690.01 148.38C690.01 146.01 690.42 143.81 691.24 141.77C692.07 139.73 693.21 137.96 694.66 136.46C696.12 134.96 697.86 133.78 699.9 132.93C701.94 132.07 704.18 131.65 706.61 131.65C709.04 131.65 711.27 132.07 713.31 132.93C715.35 133.78 717.1 134.96 718.55 136.46C720 137.96 721.14 139.73 721.97 141.77C722.79 143.81 723.21 146.01 723.21 148.38C723.21 150.75 722.79 152.96 721.97 154.99C721.14 157.03 720 158.8 718.55 160.3C717.1 161.8 715.35 162.98 713.31 163.83C711.27 164.69 709.04 165.12 706.61 165.12ZM706.61 161.07C708.44 161.07 710.08 160.73 711.55 160.05C713.02 159.38 714.28 158.47 715.33 157.33C716.38 156.19 717.19 154.85 717.76 153.31C718.33 151.76 718.62 150.12 718.62 148.38C718.62 146.64 718.33 145 717.76 143.45C717.19 141.91 716.38 140.57 715.33 139.43C714.28 138.29 713.02 137.38 711.55 136.71C710.08 136.03 708.44 135.7 706.61 135.7C704.78 135.7 703.13 136.03 701.66 136.71C700.19 137.38 698.93 138.29 697.88 139.43C696.83 140.57 696.02 141.91 695.45 143.45C694.88 145 694.59 146.64 694.59 148.38C694.59 150.12 694.88 151.76 695.45 153.31C696.02 154.85 696.83 156.19 697.88 157.33C698.93 158.47 700.19 159.38 701.66 160.05C703.13 160.73 704.78 161.07 706.61 161.07ZM736.07 136.5L725.81 136.5L725.81 132.46L750.65 132.46L750.65 136.5L740.39 136.5L740.39 164.31L736.07 164.31L736.07 136.5ZM755.23 132.46L759.55 132.46L759.55 164.31L755.23 164.31L755.23 132.46ZM763.38 132.46L768.37 132.46L777.73 158.37L777.82 158.37L787.54 132.46L792.26 132.46L779.71 164.31L775.66 164.31L763.38 132.46ZM796.08 132.46L816.64 132.46L816.64 136.5L800.4 136.5L800.4 146L815.52 146L815.52 150.05L800.4 150.05L800.4 160.26L817.45 160.26L817.45 164.31L796.08 164.31L796.08 132.46Z" />
				</g>
				<g id="&lt;Group&gt;">
					<path id="&lt;Compound Path&gt;" fill-rule="evenodd" class="shp1" d="M365.16 184.94L368.32 184.94L368.32 208.23L365.16 208.23L365.16 184.94ZM374.3 184.94L378.45 184.94L391.28 204.09L391.35 204.09L391.35 184.94L394.5 184.94L394.5 208.23L390.49 208.23L377.53 189.08L377.46 189.08L377.46 208.23L374.3 208.23L374.3 184.94ZM400.49 184.94L404.64 184.94L417.47 204.09L417.53 204.09L417.53 184.94L420.69 184.94L420.69 208.23L416.68 208.23L403.72 189.08L403.65 189.08L403.65 208.23L400.49 208.23L400.49 184.94ZM437.37 208.82C435.59 208.82 433.96 208.51 432.47 207.88C430.97 207.26 429.7 206.4 428.63 205.3C427.57 204.21 426.74 202.91 426.13 201.42C425.53 199.93 425.23 198.32 425.23 196.59C425.23 194.85 425.53 193.24 426.13 191.75C426.74 190.26 427.57 188.96 428.63 187.87C429.7 186.77 430.97 185.91 432.47 185.29C433.96 184.66 435.59 184.35 437.37 184.35C439.14 184.35 440.78 184.66 442.27 185.29C443.76 185.91 445.04 186.77 446.1 187.87C447.16 188.96 448 190.26 448.6 191.75C449.2 193.24 449.51 194.85 449.51 196.59C449.51 198.32 449.2 199.93 448.6 201.42C448 202.91 447.16 204.21 446.1 205.3C445.04 206.4 443.76 207.26 442.27 207.88C440.78 208.51 439.14 208.82 437.37 208.82ZM437.37 205.86C438.7 205.86 439.91 205.62 440.99 205.12C442.06 204.63 442.98 203.97 443.75 203.13C444.52 202.3 445.11 201.32 445.53 200.19C445.94 199.06 446.15 197.86 446.15 196.59C446.15 195.31 445.94 194.11 445.53 192.98C445.11 191.85 444.52 190.87 443.75 190.04C442.98 189.2 442.06 188.54 440.99 188.05C439.91 187.55 438.7 187.31 437.37 187.31C436.03 187.31 434.82 187.55 433.75 188.05C432.67 188.54 431.75 189.2 430.99 190.04C430.22 190.87 429.63 191.85 429.21 192.98C428.79 194.11 428.58 195.31 428.58 196.59C428.58 197.86 428.79 199.06 429.21 200.19C429.63 201.32 430.22 202.3 430.99 203.13C431.75 203.97 432.67 204.63 433.75 205.12C434.82 205.62 436.03 205.86 437.37 205.86ZM450.85 184.94L454.51 184.94L461.35 203.89L461.41 203.89L468.52 184.94L471.97 184.94L462.79 208.23L459.84 208.23L450.85 184.94ZM480.56 184.94L483.42 184.94L493.39 208.23L489.71 208.23L487.37 202.47L476.28 202.47L473.98 208.23L470.3 208.23L480.56 184.94ZM486.22 199.71L481.88 189.02L481.81 189.02L477.4 199.71L486.22 199.71ZM498.26 187.9L490.76 187.9L490.76 184.94L508.92 184.94L508.92 187.9L501.42 187.9L501.42 208.23L498.26 208.23L498.26 187.9ZM512.27 184.94L515.43 184.94L515.43 208.23L512.27 208.23L512.27 184.94ZM532.11 208.82C530.33 208.82 528.7 208.51 527.21 207.88C525.72 207.26 524.44 206.4 523.37 205.3C522.31 204.21 521.48 202.91 520.87 201.42C520.27 199.93 519.97 198.32 519.97 196.59C519.97 194.85 520.27 193.24 520.87 191.75C521.48 190.26 522.31 188.96 523.37 187.87C524.44 186.77 525.72 185.91 527.21 185.29C528.7 184.66 530.33 184.35 532.11 184.35C533.88 184.35 535.52 184.66 537.01 185.29C538.5 185.91 539.78 186.77 540.84 187.87C541.91 188.96 542.74 190.26 543.34 191.75C543.95 193.24 544.25 194.85 544.25 196.59C544.25 198.32 543.95 199.93 543.34 201.42C542.74 202.91 541.91 204.21 540.84 205.3C539.78 206.4 538.5 207.26 537.01 207.88C535.52 208.51 533.88 208.82 532.11 208.82ZM532.11 205.86C533.45 205.86 534.65 205.62 535.73 205.12C536.8 204.63 537.72 203.97 538.49 203.13C539.26 202.3 539.85 201.32 540.27 200.19C540.68 199.06 540.89 197.86 540.89 196.59C540.89 195.31 540.68 194.11 540.27 192.98C539.85 191.85 539.26 190.87 538.49 190.04C537.72 189.2 536.8 188.54 535.73 188.05C534.65 187.55 533.45 187.31 532.11 187.31C530.77 187.31 529.56 187.55 528.49 188.05C527.41 188.54 526.49 189.2 525.73 190.04C524.96 190.87 524.37 191.85 523.95 192.98C523.53 194.11 523.32 195.31 523.32 196.59C523.32 197.86 523.53 199.06 523.95 200.19C524.37 201.32 524.96 202.3 525.73 203.13C526.49 203.97 527.41 204.63 528.49 205.12C529.56 205.62 530.77 205.86 532.11 205.86ZM548.79 184.94L552.93 184.94L565.76 204.09L565.83 204.09L565.83 184.94L568.99 184.94L568.99 208.23L564.97 208.23L552.01 189.08L551.94 189.08L551.94 208.23L548.79 208.23L548.79 184.94ZM600.33 189.97C599.68 189.12 598.84 188.46 597.83 188C596.82 187.54 595.78 187.31 594.71 187.31C593.39 187.31 592.2 187.55 591.14 188.05C590.08 188.54 589.17 189.22 588.41 190.07C587.65 190.93 587.07 191.93 586.65 193.08C586.23 194.23 586.02 195.47 586.02 196.78C586.02 198.01 586.22 199.17 586.62 200.27C587.01 201.37 587.58 202.33 588.33 203.16C589.07 204 589.98 204.66 591.06 205.14C592.13 205.62 593.35 205.86 594.71 205.86C596.05 205.86 597.22 205.59 598.23 205.04C599.24 204.49 600.09 203.72 600.8 202.74L603.46 204.74C603.28 204.99 602.98 205.33 602.54 205.78C602.1 206.23 601.52 206.68 600.8 207.13C600.07 207.58 599.2 207.97 598.18 208.31C597.16 208.65 595.98 208.82 594.64 208.82C592.8 208.82 591.14 208.47 589.66 207.77C588.18 207.07 586.92 206.15 585.88 205.01C584.83 203.87 584.04 202.58 583.49 201.14C582.94 199.7 582.67 198.25 582.67 196.78C582.67 194.98 582.96 193.32 583.56 191.8C584.15 190.27 584.98 188.96 586.04 187.85C587.1 186.74 588.38 185.88 589.87 185.27C591.36 184.66 593.01 184.35 594.81 184.35C596.34 184.35 597.85 184.64 599.33 185.24C600.81 185.83 602.02 186.74 602.97 187.97L600.33 189.97ZM617.97 208.82C616.19 208.82 614.56 208.51 613.07 207.88C611.57 207.26 610.3 206.4 609.23 205.3C608.17 204.21 607.34 202.91 606.73 201.42C606.13 199.93 605.83 198.32 605.83 196.59C605.83 194.85 606.13 193.24 606.73 191.75C607.34 190.26 608.17 188.96 609.23 187.87C610.3 186.77 611.57 185.91 613.07 185.29C614.56 184.66 616.19 184.35 617.97 184.35C619.74 184.35 621.38 184.66 622.87 185.29C624.36 185.91 625.64 186.77 626.7 187.87C627.76 188.96 628.6 190.26 629.2 191.75C629.8 193.24 630.11 194.85 630.11 196.59C630.11 198.32 629.8 199.93 629.2 201.42C628.6 202.91 627.76 204.21 626.7 205.3C625.64 206.4 624.36 207.26 622.87 207.88C621.38 208.51 619.74 208.82 617.97 208.82ZM617.97 205.86C619.3 205.86 620.51 205.62 621.59 205.12C622.66 204.63 623.58 203.97 624.35 203.13C625.12 202.3 625.71 201.32 626.13 200.19C626.54 199.06 626.75 197.86 626.75 196.59C626.75 195.31 626.54 194.11 626.13 192.98C625.71 191.85 625.12 190.87 624.35 190.04C623.58 189.2 622.66 188.54 621.59 188.05C620.51 187.55 619.3 187.31 617.97 187.31C616.63 187.31 615.42 187.55 614.35 188.05C613.27 188.54 612.35 189.2 611.59 190.04C610.82 190.87 610.22 191.85 609.81 192.98C609.39 194.11 609.18 195.31 609.18 196.59C609.18 197.86 609.39 199.06 609.81 200.19C610.22 201.32 610.82 202.3 611.59 203.13C612.35 203.97 613.27 204.63 614.35 205.12C615.42 205.62 616.63 205.86 617.97 205.86ZM634.64 184.94L642.84 184.94C644.33 184.94 645.55 185.14 646.52 185.55C647.48 185.95 648.25 186.47 648.81 187.09C649.37 187.72 649.76 188.42 649.98 189.2C650.19 189.98 650.3 190.73 650.3 191.45C650.3 192.2 650.17 192.92 649.91 193.61C649.65 194.3 649.27 194.92 648.77 195.48C648.28 196.04 647.68 196.51 646.97 196.9C646.25 197.28 645.46 197.52 644.58 197.6L651.19 208.23L647.24 208.23L641.32 197.97L637.8 197.97L637.8 208.23L634.64 208.23L634.64 184.94ZM637.8 195.2L641.95 195.2C642.56 195.2 643.17 195.15 643.77 195.06C644.38 194.96 644.91 194.78 645.39 194.51C645.86 194.25 646.24 193.87 646.52 193.38C646.81 192.88 646.95 192.24 646.95 191.45C646.95 190.66 646.81 190.02 646.52 189.53C646.24 189.04 645.86 188.66 645.39 188.39C644.91 188.13 644.38 187.95 643.77 187.85C643.17 187.75 642.56 187.7 641.95 187.7L637.8 187.7L637.8 195.2ZM654.74 184.94L662.94 184.94C664.43 184.94 665.65 185.14 666.62 185.55C667.58 185.95 668.35 186.47 668.91 187.09C669.47 187.72 669.86 188.42 670.08 189.2C670.29 189.98 670.4 190.73 670.4 191.45C670.4 192.18 670.29 192.93 670.08 193.71C669.86 194.49 669.47 195.19 668.91 195.81C668.35 196.44 667.58 196.95 666.62 197.36C665.65 197.76 664.43 197.97 662.94 197.97L657.9 197.97L657.9 208.23L654.74 208.23L654.74 184.94ZM657.9 195.2L662.05 195.2C662.66 195.2 663.27 195.15 663.87 195.06C664.48 194.96 665.01 194.78 665.49 194.51C665.96 194.25 666.34 193.87 666.62 193.38C666.91 192.88 667.05 192.24 667.05 191.45C667.05 190.66 666.91 190.02 666.62 189.53C666.34 189.04 665.96 188.66 665.49 188.39C665.01 188.13 664.48 187.95 663.87 187.85C663.27 187.75 662.66 187.7 662.05 187.7L657.9 187.7L657.9 195.2ZM684.94 208.82C683.17 208.82 681.53 208.51 680.04 207.88C678.55 207.26 677.27 206.4 676.21 205.3C675.15 204.21 674.31 202.91 673.71 201.42C673.11 199.93 672.81 198.32 672.81 196.59C672.81 194.85 673.11 193.24 673.71 191.75C674.31 190.26 675.15 188.96 676.21 187.87C677.27 186.77 678.55 185.91 680.04 185.29C681.53 184.66 683.17 184.35 684.94 184.35C686.72 184.35 688.35 184.66 689.85 185.29C691.34 185.91 692.61 186.77 693.68 187.87C694.74 188.96 695.57 190.26 696.18 191.75C696.78 193.24 697.08 194.85 697.08 196.59C697.08 198.32 696.78 199.93 696.18 201.42C695.57 202.91 694.74 204.21 693.68 205.3C692.61 206.4 691.34 207.26 689.85 207.88C688.35 208.51 686.72 208.82 684.94 208.82ZM684.94 205.86C686.28 205.86 687.49 205.62 688.56 205.12C689.64 204.63 690.56 203.97 691.33 203.13C692.09 202.3 692.69 201.32 693.1 200.19C693.52 199.06 693.73 197.86 693.73 196.59C693.73 195.31 693.52 194.11 693.1 192.98C692.69 191.85 692.09 190.87 691.33 190.04C690.56 189.2 689.64 188.54 688.56 188.05C687.49 187.55 686.28 187.31 684.94 187.31C683.61 187.31 682.4 187.55 681.33 188.05C680.25 188.54 679.33 189.2 678.56 190.04C677.79 190.87 677.2 191.85 676.79 192.98C676.37 194.11 676.16 195.31 676.16 196.59C676.16 197.86 676.37 199.06 676.79 200.19C677.2 201.32 677.79 202.3 678.56 203.13C679.33 203.97 680.25 204.63 681.33 205.12C682.4 205.62 683.61 205.86 684.94 205.86ZM701.62 184.94L709.81 184.94C711.3 184.94 712.53 185.14 713.5 185.55C714.46 185.95 715.23 186.47 715.78 187.09C716.34 187.72 716.73 188.42 716.95 189.2C717.17 189.98 717.28 190.73 717.28 191.45C717.28 192.2 717.15 192.92 716.89 193.61C716.62 194.3 716.24 194.92 715.75 195.48C715.26 196.04 714.65 196.51 713.94 196.9C713.23 197.28 712.43 197.52 711.56 197.6L718.17 208.23L714.22 208.23L708.3 197.97L704.78 197.97L704.78 208.23L701.62 208.23L701.62 184.94ZM704.78 195.2L708.92 195.2C709.54 195.2 710.15 195.15 710.75 195.06C711.35 194.96 711.89 194.78 712.36 194.51C712.83 194.25 713.21 193.87 713.5 193.38C713.78 192.88 713.93 192.24 713.93 191.45C713.93 190.66 713.78 190.02 713.5 189.53C713.21 189.04 712.83 188.66 712.36 188.39C711.89 188.13 711.35 187.95 710.75 187.85C710.15 187.75 709.54 187.7 708.92 187.7L704.78 187.7L704.78 195.2ZM729.02 184.94L731.89 184.94L741.85 208.23L738.17 208.23L735.83 202.47L724.75 202.47L722.44 208.23L718.76 208.23L729.02 184.94ZM734.68 199.71L730.34 189.02L730.27 189.02L725.86 199.71L734.68 199.71ZM746.72 187.9L739.22 187.9L739.22 184.94L757.38 184.94L757.38 187.9L749.88 187.9L749.88 208.23L746.72 208.23L746.72 187.9ZM760.74 184.94L763.89 184.94L763.89 208.23L760.74 208.23L760.74 184.94ZM780.57 208.82C778.8 208.82 777.16 208.51 775.67 207.88C774.18 207.26 772.9 206.4 771.84 205.3C770.77 204.21 769.94 202.91 769.34 201.42C768.73 199.93 768.43 198.32 768.43 196.59C768.43 194.85 768.73 193.24 769.34 191.75C769.94 190.26 770.77 188.96 771.84 187.87C772.9 186.77 774.18 185.91 775.67 185.29C777.16 184.66 778.8 184.35 780.57 184.35C782.35 184.35 783.98 184.66 785.47 185.29C786.96 185.91 788.24 186.77 789.31 187.87C790.37 188.96 791.2 190.26 791.81 191.75C792.41 193.24 792.71 194.85 792.71 196.59C792.71 198.32 792.41 199.93 791.81 201.42C791.2 202.91 790.37 204.21 789.31 205.3C788.24 206.4 786.96 207.26 785.47 207.88C783.98 208.51 782.35 208.82 780.57 208.82ZM780.57 205.86C781.91 205.86 783.12 205.62 784.19 205.12C785.27 204.63 786.19 203.97 786.95 203.13C787.72 202.3 788.31 201.32 788.73 200.19C789.15 199.06 789.36 197.86 789.36 196.59C789.36 195.31 789.15 194.11 788.73 192.98C788.31 191.85 787.72 190.87 786.95 190.04C786.19 189.2 785.27 188.54 784.19 188.05C783.12 187.55 781.91 187.31 780.57 187.31C779.23 187.31 778.03 187.55 776.95 188.05C775.88 188.54 774.96 189.2 774.19 190.04C773.42 190.87 772.83 191.85 772.41 192.98C772 194.11 771.79 195.31 771.79 196.59C771.79 197.86 772 199.06 772.41 200.19C772.83 201.32 773.42 202.3 774.19 203.13C774.96 203.97 775.88 204.63 776.95 205.12C778.03 205.62 779.23 205.86 780.57 205.86ZM797.25 184.94L801.4 184.94L814.23 204.09L814.29 204.09L814.29 184.94L817.45 184.94L817.45 208.23L813.44 208.23L800.47 189.08L800.41 189.08L800.41 208.23L797.25 208.23L797.25 184.94Z" />
				</g>
			</g>
		</g>
	</g>
</svg>