<?xml version="1.0" encoding="UTF-8"?>
<svg width="110px" height="46px" viewBox="0 0 110 46" version="1.1" xmlns="http://www.w3.org/2000/svg" xmlns:xlink="http://www.w3.org/1999/xlink">
    <!-- Generator: Sketch 63 (92445) - https://sketch.com -->
    <title>编组备份 4</title>
    <desc>Created with Sketch.</desc>
    <g id="3D云应用-oms" stroke="none" stroke-width="1" fill="none" fill-rule="evenodd">
        <g id="oms-（管理员）应用管理/可视化应用软件备份" transform="translate(-39.000000, -10.000000)" fill="#FFFFFF">
            <g id="编组备份-4" transform="translate(39.000000, 10.000000)">
                <path d="M26.3614477,30.8187459 C31.4444318,30.8187459 35.5746288,34.8628827 35.6567244,39.8825739 L35.6580532,40.0349812 L35.6580532,40.7479093 C31.9047858,43.4729673 27.2752063,45.0819672 22.266551,45.0819672 C20.4942637,45.0819672 18.7694391,44.8805104 17.1141066,44.4994359 C17.0880824,44.2486488 17.072221,43.9949174 17.0669174,43.7386232 L17.0649254,43.545928 L17.0649254,40.0349812 L17.0661709,39.8825739 C17.1482666,34.8628827 21.2784635,30.8187459 26.3614477,30.8187459 Z M22.5409836,0 C34.9900251,0 45.0819672,10.1249307 45.0819672,22.6146658 C45.0819672,28.3025416 42.9889707,33.4999739 39.5335145,37.4740379 C38.2977438,31.4479251 32.9809569,26.916968 26.6093563,26.916968 C23.1180526,26.916968 19.9434533,28.2773726 17.5834693,30.4986431 L17.4828273,30.594366 L17.4830068,26.0343503 L17.44904,26.0344445 L17.4489728,18.369567 C17.2912263,17.2680667 17.6221534,16.1096772 18.4417543,15.2468655 L18.5057644,15.1810843 L19.7497747,13.9330076 C21.2097516,12.4682583 23.5768417,12.4682583 25.0368186,13.9330076 C26.4775852,15.3784838 26.4965427,17.7102467 25.093691,19.1790462 L25.0368186,19.2373338 L23.7928083,20.4854106 L23.7421075,20.5353386 C23.650894,20.6235017 23.5563169,20.7061057 23.4588004,20.7831504 L23.3603197,20.8583421 L21.4073371,22.7987983 L21.4073371,22.9455179 L27.2495202,22.9455179 L28.1468444,22.0455065 L28.1446699,22.0434413 C31.0821848,18.931126 31.0310759,14.0184943 27.9913431,10.9688253 C24.9820052,7.94965041 20.1527237,7.86920544 17.0464022,10.7274903 L16.9528022,10.8150046 L16.9507515,10.8128157 L15.3957385,12.3729116 L15.3977692,12.3751293 C15.2432882,12.5388114 15.0970731,12.7074726 14.9591239,12.8805801 L14.8572118,13.0112361 L7.94025555,19.972253 C7.61148683,20.303107 7.42687093,20.7512352 7.42687093,21.2184193 C7.42687093,22.1748353 8.18509195,22.9535804 9.13136968,22.9826265 L9.18616721,22.9834664 L13.3805478,22.9834664 L13.3806674,43.2436536 L13.4146341,43.2435593 L13.414684,43.2990646 C5.51238586,39.7844138 0,31.8453874 0,22.6146658 C0,10.1249307 10.0919421,0 22.5409836,0 Z" id="形状备份-5"></path>
                <g id="编组-16备份-3" transform="translate(49.590164, 9.016393)">
                    <g id="编组-5">
                        <g id="编组备份-2">
                            <g id="编组-3">
                                <path d="M10.545364,4.05393568 L25.6154533,4.05393568 C25.9178121,4.05393568 26.1634149,3.81510162 26.1634149,3.52052309 L26.1634149,3.25394067 C26.1634149,2.51737048 25.5500441,1.92028532 24.7933837,1.92028532 L10.545364,1.92028532 C10.2427508,1.92028532 9.99740245,2.15911938 9.99740245,2.45369791 L9.99740245,3.52052309 C9.99740245,3.81510162 10.2427508,4.05393568 10.545364,4.05393568" id="Fill-1"></path>
                                <path d="M8.62774663,10.9262328 L13.1331773,10.9262328 C12.7971739,16.1976273 10.0962433,19.5034728 9.05432921,20.2506394 C8.84204998,20.4031585 8.77069987,20.6801211 8.87595393,20.9148437 L9.41107977,21.9136795 C9.56440661,22.2000006 9.93228981,22.2918156 10.1989672,22.1064151 C11.5252696,21.1842182 14.9548823,17.300166 15.314163,10.9262328 L19.7102913,10.9262328 L19.7102913,17.9122659 C19.7014358,18.2390564 19.7024479,20.2984439 21.0307744,21.674404 C21.7604685,22.4304233 22.7636713,22.8300588 23.9320926,22.8300588 L24.0307683,22.8295529 C26.3795027,22.7913599 28.2905218,20.8359283 28.2905218,18.4697321 L28.2905218,17.9289595 C28.2905218,17.1767342 27.6807567,16.5671636 26.9285443,16.5671636 L26.7570004,16.5671636 C26.4005029,16.5671636 26.1113072,16.856267 26.1113072,17.2126508 L26.1113072,18.4697321 C26.1113072,19.6537155 25.1622495,20.6325695 24.0024307,20.6512866 L23.9320926,20.6517925 C23.3562314,20.6517925 22.9215524,20.4932029 22.6040191,20.1671712 C21.9866635,19.5335719 21.8783733,18.3609705 21.8884939,17.9676584 L21.8889999,10.9262328 L27.4226818,10.9262328 L27.4226818,10.1095094 C27.4226818,9.35753705 26.8129167,8.74796646 26.0607043,8.74796646 L8.62774663,8.74796646 C8.32716531,8.74796646 8.08300623,8.9917947 8.08300623,9.29253305 L8.08300623,10.3819192 C8.08300623,10.6824046 8.32716531,10.9262328 8.62774663,10.9262328" id="Fill-3"></path>
                                <path d="M34.0784137,5.52831868 L35.0021135,6.1054681 C35.2571273,6.26483975 35.5918487,6.18515392 35.7497504,5.92776616 L36.9945506,3.89845077 L39.677114,3.89845077 L40.2862715,5.09755697 C40.6283078,5.77094038 41.4465716,6.03698411 42.1134919,5.69201832 L42.8386795,5.31675663 L42.1182845,3.89845077 L45.4024382,3.89845077 C45.7023506,3.89845077 45.9455091,3.65302861 45.9455091,3.35006972 L45.9455091,3.07587919 C45.9455091,2.31924573 45.3376128,1.70543574 44.5877058,1.70543574 L38.3394897,1.70543574 L38.7080111,1.10435512 C38.8659128,0.846712768 38.7872142,0.508875417 38.5322004,0.349503765 L38.3011494,0.205407351 C37.6634888,-0.193021778 36.8268115,0.00581090593 36.4320573,0.649153021 L33.9026031,4.77372192 C33.7444491,5.03110968 33.8231477,5.36894703 34.0784137,5.52831868" id="Fill-5"></path>
                                <path d="M1.95505823,5.52831868 L2.86461835,6.1054681 C3.11572848,6.26483975 3.44532604,6.18515392 3.60081065,5.92776616 L6.51378747,1.10435512 C6.66927208,0.846712768 6.59202653,0.508875417 6.34066802,0.349503765 L6.11315381,0.205407351 C5.48550268,-0.193021778 4.66138458,0.00581090593 4.27267306,0.649153021 L1.78169041,4.77372192 C1.62645418,5.03110968 1.7039481,5.36894703 1.95505823,5.52831868" id="Fill-7"></path>
                                <path d="M47.4790777,5.52831868 L48.402786,6.1054681 C48.6580544,6.26483975 48.9925266,6.18515392 49.1504297,5.92776616 L50.3954937,3.89845077 L53.0780818,3.89845077 L53.6869928,5.09755697 C54.0290322,5.77094038 54.8473036,6.03698411 55.5144823,5.69201832 L56.2394243,5.31675663 L55.5192749,3.89845077 L58.8034589,3.89845077 C59.1031218,3.89845077 59.3462826,3.65302861 59.3462826,3.35006972 L59.3462826,3.07587919 C59.3462826,2.31924573 58.7383806,1.70543574 57.9884667,1.70543574 L51.740193,1.70543574 L52.1089701,1.10435512 C52.266621,0.846712768 52.1881739,0.508875417 51.9329055,0.349503765 L51.7018523,0.205407351 C51.0644381,-0.193021778 50.2275009,0.00581090593 49.8329952,0.649153021 L47.3032654,4.77372192 C47.1453622,5.03110968 47.2238093,5.36894703 47.4790777,5.52831868" id="Fill-9"></path>
                                <path d="M42.4786793,21.0928133 L52.0328781,21.0928133 L52.0328781,18.8981188 L42.4786793,18.8981188 L42.4786793,21.0928133 Z M38.4036344,16.1548144 L38.4036344,15.0575945 L55.5194288,15.0575945 L55.5194288,16.1548144 C55.5194288,16.4577857 55.27641,16.7034243 54.9763587,16.7034243 L38.9469569,16.7034243 C38.6471579,16.7034243 38.4036344,16.4577857 38.4036344,16.1548144 L38.4036344,16.1548144 Z M38.9469569,9.02237567 L54.9763587,9.02237567 C55.27641,9.02237567 55.5194288,9.26826911 55.5194288,9.5709856 L55.5194288,10.2566843 L38.4036344,10.2566843 L38.4036344,9.5709856 C38.4036344,9.26826911 38.6471579,9.02237567 38.9469569,9.02237567 L38.9469569,9.02237567 Z M38.4036344,13.2744211 L55.5194288,13.2744211 L55.5194288,12.0398577 L38.4036344,12.0398577 L38.4036344,13.2744211 Z M59.0514036,21.0928133 L54.2064205,21.0928133 L54.2064205,18.8981188 L56.6063262,18.8981188 C57.2066812,18.8981188 57.6929712,18.4068416 57.6929712,17.800899 L57.6929712,7.92515581 C57.6929712,7.31921321 57.2066812,6.82768114 56.6063262,6.82768114 L37.5885245,6.82768114 C36.8385224,6.82768114 36.2303444,7.44203253 36.2303444,8.19933337 L36.2303444,17.5264666 C36.2303444,18.2840222 36.8385224,18.8981188 37.5885245,18.8981188 L40.3056417,18.8981188 L40.3056417,21.0928133 L33.5134795,21.0928133 C33.2131759,21.0928133 32.970157,21.338452 32.970157,21.6414233 L32.970157,22.7386431 C32.970157,23.0416144 33.2131759,23.2872531 33.5134795,23.2872531 L39.97556,23.2872531 C39.6878742,23.8677145 39.1498511,24.5855195 38.1356323,25.2189818 C37.7091506,25.4860246 37.2261412,25.6572581 36.7189056,25.7242737 C36.4423234,25.7607118 36.2303444,25.9880039 36.2303444,26.269571 L36.2303444,27.373416 C36.2303444,27.6939693 36.5021318,27.9533678 36.8183339,27.9215163 C37.6967852,27.8336062 38.5381401,27.5489814 39.2798145,27.0852238 C41.2456678,25.8567758 42.0032406,24.3105775 42.2954689,23.2872531 L52.0331305,23.2872531 L52.0331305,27.4022097 C52.0331305,27.705181 52.2764017,27.9508197 52.576453,27.9508197 L53.6633503,27.9508197 C53.9634016,27.9508197 54.2064205,27.705181 54.2064205,27.4022097 L54.2064205,23.2872531 L59.8665136,23.2872531 C60.1665649,23.2872531 60.4098361,23.0416144 60.4098361,22.7386431 L60.4098361,22.4644656 C60.4098361,21.7069099 59.8016581,21.0928133 59.0514036,21.0928133 L59.0514036,21.0928133 Z" id="Fill-11"></path>
                                <path d="M27.1362252,25.0398033 L12.322112,25.0398033 L12.2245956,25.0441012 C12.0346417,25.0615456 7.77210826,25.3507692 5.73873885,20.5988044 L5.74102439,9.29228335 C5.74102439,8.9916829 5.49621758,8.74796646 5.1945262,8.74796646 L1.36675336,8.74796646 C0.61201702,8.74796646 0,9.35725755 0,10.1086323 L0,10.925234 L3.5542698,10.925234 L3.5542698,20.6000685 C3.5542698,20.6556885 3.55122241,20.7105499 3.54385789,20.765917 C3.47275218,21.3127621 3.03773759,23.6996157 0.741277046,25.4041138 C0.200619687,25.8053358 0.0358068049,26.540783 0.35298907,27.1328825 L0.522626982,27.4489048 C0.670933181,27.7259932 1.0246841,27.8205471 1.29387001,27.6574795 C3.23099276,26.4844046 4.32652862,24.9315972 4.94489436,23.599247 C7.03565624,26.4275206 10.0035579,27.2370434 11.8799868,27.2367906 C12.053434,27.2367906 12.2177389,27.2299645 12.3708702,27.2170708 L27.9562264,27.2170708 C28.2584257,27.2170708 28.5032325,26.9733544 28.5032325,26.6730067 L28.5032325,26.4007219 C28.5032325,25.6490943 27.8912155,25.0398033 27.1362252,25.0398033" id="Fill-13"></path>
                                <polygon id="Fill-14" points="8.9190656 21.1231385 8.9190656 21.1228732 8.7359217 20.6964085"></polygon>
                                <path d="M9.14655969,21.5498686 L8.933849,20.9097735 C8.93802335,20.9241083 8.94074576,20.9396134 8.94564609,20.9539482 L9.14655969,21.5498686 Z" id="Fill-15"></path>
                            </g>
                        </g>
                    </g>
                </g>
            </g>
        </g>
    </g>
</svg>