<?xml version="1.0" encoding="UTF-8"?>
<svg width="46px" height="46px" viewBox="0 0 46 46" version="1.1" xmlns="http://www.w3.org/2000/svg" xmlns:xlink="http://www.w3.org/1999/xlink">
    <!-- Generator: Sketch 63 (92445) - https://sketch.com -->
    <title>编组备份 5</title>
    <desc>Created with Sketch.</desc>
    <g id="3D云应用-oms" stroke="none" stroke-width="1" fill="none" fill-rule="evenodd">
        <g id="编组备份-5" fill="#FFFFFF">
            <path d="M26.3614477,30.8187459 C31.4444318,30.8187459 35.5746288,34.8628827 35.6567244,39.8825739 L35.6580532,40.0349812 L35.6580532,40.7479093 C31.9047858,43.4729673 27.2752063,45.0819672 22.266551,45.0819672 C20.4942637,45.0819672 18.7694391,44.8805104 17.1141066,44.4994359 C17.0880824,44.2486488 17.072221,43.9949174 17.0669174,43.7386232 L17.0649254,43.545928 L17.0649254,40.0349812 L17.0661709,39.8825739 C17.1482666,34.8628827 21.2784635,30.8187459 26.3614477,30.8187459 Z M22.5409836,0 C34.9900251,0 45.0819672,10.1249307 45.0819672,22.6146658 C45.0819672,28.3025416 42.9889707,33.4999739 39.5335145,37.4740379 C38.2977438,31.4479251 32.9809569,26.916968 26.6093563,26.916968 C23.1180526,26.916968 19.9434533,28.2773726 17.5834693,30.4986431 L17.4828273,30.594366 L17.4830068,26.0343503 L17.44904,26.0344445 L17.4489728,18.369567 C17.2912263,17.2680667 17.6221534,16.1096772 18.4417543,15.2468655 L18.5057644,15.1810843 L19.7497747,13.9330076 C21.2097516,12.4682583 23.5768417,12.4682583 25.0368186,13.9330076 C26.4775852,15.3784838 26.4965427,17.7102467 25.093691,19.1790462 L25.0368186,19.2373338 L23.7928083,20.4854106 L23.7421075,20.5353386 C23.650894,20.6235017 23.5563169,20.7061057 23.4588004,20.7831504 L23.3603197,20.8583421 L21.4073371,22.7987983 L21.4073371,22.9455179 L27.2495202,22.9455179 L28.1468444,22.0455065 L28.1446699,22.0434413 C31.0821848,18.931126 31.0310759,14.0184943 27.9913431,10.9688253 C24.9820052,7.94965041 20.1527237,7.86920544 17.0464022,10.7274903 L16.9528022,10.8150046 L16.9507515,10.8128157 L15.3957385,12.3729116 L15.3977692,12.3751293 C15.2432882,12.5388114 15.0970731,12.7074726 14.9591239,12.8805801 L14.8572118,13.0112361 L7.94025555,19.972253 C7.61148683,20.303107 7.42687093,20.7512352 7.42687093,21.2184193 C7.42687093,22.1748353 8.18509195,22.9535804 9.13136968,22.9826265 L9.18616721,22.9834664 L13.3805478,22.9834664 L13.3806674,43.2436536 L13.4146341,43.2435593 L13.414684,43.2990646 C5.51238586,39.7844138 0,31.8453874 0,22.6146658 C0,10.1249307 10.0919421,0 22.5409836,0 Z" id="形状备份-5"></path>
        </g>
    </g>
</svg>