<?xml version="1.0" encoding="UTF-8"?>
<svg width="26px" height="27px" viewBox="0 0 26 27" version="1.1" xmlns="http://www.w3.org/2000/svg" xmlns:xlink="http://www.w3.org/1999/xlink">
    <!-- Generator: Sketch 54.1 (76490) - https://sketchapp.com -->
    <title>编组 13</title>
    <desc>Created with Sketch.</desc>
    <g id="泛超算-文件管理" stroke="none" stroke-width="1" fill="none" fill-rule="evenodd">
        <g id="泛超算-文件管理（导航折叠）" transform="translate(-16.000000, -15.000000)" fill="#FFFFFF" fill-rule="nonzero">
            <g id="编组-13" transform="translate(16.000000, 15.000000)">
                <path d="M8.61052141,19.0395595 C9.01315176,18.5803033 9.68420235,17.7428361 11.2192306,17.0854694 C12.6116605,16.4821329 14.0124786,16.4281027 15.1616528,16.6262132 C16.5960234,16.8693489 17.837467,17.6347758 18.4917413,18.2201023 C20.0938746,19.6789161 20.5468337,21.1467349 20.7481489,22.0922623 C21.0165692,23.6681414 20.9997929,25.9734274 20.9997929,26.6758192 C20.9997929,26.8018895 20.9997929,26.9639799 20.9997929,26.9639799 L19.2466732,26.98199 L19.2466732,25.5141712 C19.2466732,25.5141712 19.2550614,24.4695885 19.0621343,22.353408 C18.8775954,20.399318 16.8560555,18.6163234 14.289287,18.4092078 C10.9340341,18.1480622 8.82861285,21.7320614 8.6608502,22.2453477 C8.60213328,22.4164432 8.61052141,22.6955989 8.61890954,23.0648048 C8.62729768,24.4335684 8.61890954,27 8.61890954,27 L7.00838813,27 L7,6.98183334 C7,6.94581325 7.01677626,6.91879818 7.03355253,6.89178311 L9.84357687,4.18127112 C9.851965,4.17226609 9.86035313,4.16326107 9.87712939,4.16326107 C10.1539378,4.03719075 10.6907782,3.93813549 11.2695594,4.04619577 C12.3684047,4.24430628 13.46725,5.40595428 13.3414281,6.85576302 C13.2323823,8.09845623 12.2845234,9.03497864 11.2611712,9.14303892 C10.6236732,9.20607408 9.34028892,8.25154162 9.34028892,8.25154162 L10.3468648,7.0808886 C10.3888055,7.02685846 10.4642987,7.02685846 10.5062393,7.0808886 C10.5565681,7.14392376 10.6320613,7.22496897 10.7243308,7.26999409 C10.8920934,7.3510393 11.118573,7.40506944 11.3450526,7.26999409 C11.7057422,7.05387353 11.7980117,6.60362237 11.6218609,6.24342144 C11.5212033,6.04531093 11.3198882,5.90123056 11.1353492,5.87421549 C10.9172578,5.83819539 10.6404494,5.90123056 10.296536,6.11735111 C10.296536,6.11735111 8.87055351,7.27899911 8.64407394,7.62118999 C8.63568581,7.63920004 8.62729768,7.66621511 8.62729768,7.68422516" id="路径"></path>
                <path d="M8.38518168,9.08307568 C10.3227289,10.244702 11.7850287,10.3097531 13.3661404,9.2782289 C15.2854089,8.02367248 15.5595901,5.71900586 14.6822102,4.074143 C14.2892171,3.33070215 13.7682728,2.87534464 13.5123704,2.67089841 C13.4118373,2.58726131 12.0683493,1.42563499 10.2039171,1.8716995 C9.43620967,2.05755971 9.34481593,2.15048982 8.54055104,2.78241453 C8.0653036,3.15413495 2.44458872,7.85639829 2.44458872,7.85639829 C2.26180125,8.01437947 2.42630998,8.0422585 2.46286747,8.0422585 L4.82082591,8.16306764 L4.82082591,18.0136588 C5.17726148,17.3631481 7.97390986,12.89321 14.5268409,12.7631079 C16.4735275,12.7259358 18.0637785,13.1348283 19.4164058,13.738874 C21.0066569,14.4451428 22.1947755,15.4859599 22.8985072,16.2201078 C24.4796189,17.8928497 25.2107688,19.6678147 25.5489256,20.9316641 C26.1155668,23.0411775 25.9876156,25.9684758 25.9876156,25.9684758 L25.9876156,26.990707 L24.3059708,26.990707 C24.3059708,26.990707 24.3059708,26.5446425 24.3059708,26.2008011 C24.2419952,22.7623872 24.3425283,20.5971157 21.6921099,17.4281991 C21.6921099,17.4281991 20.3029251,15.8669734 18.0454998,15.0584815 C16.8939387,14.640296 15.3676633,14.2778686 13.3387223,14.5101938 C12.4430636,14.612417 11.7027744,14.7796911 10.9624851,15.0863605 C6.85890626,16.7683954 4.82996528,20.810855 4.82996528,22.7530942 C4.82996528,22.9761264 4.82996528,27 4.82996528,27 L3.04778739,27 L3.04778739,9.74287943 C3.04778739,9.74287943 0.52532023,9.88227459 0.095769662,8.81357837 C-0.0961571874,8.33963484 -0.0321815709,7.62407302 0.589295846,7.0757854 L8.5862479,0.403403835 C12.1963005,-0.813980546 15.605287,0.812296298 16.6380362,4.09272902 C17.4514405,6.68547896 16.5283637,9.23176385 14.4537259,10.7651106 C13.2930254,11.6200676 10.6060495,12.2798713 8.35776356,10.9881428" id="路径"></path>
            </g>
        </g>
    </g>
</svg>